/* XPM */
static char * network_disconnect_xpm[] = {
"24 24 71 1",
" 	c None",
".	c #191918",
"+	c #181817",
"@	c #808080",
"#	c #EDEDED",
"$	c #6B6B6A",
"%	c #161615",
"&	c #D8D8D8",
"*	c #484848",
"=	c #A4A4A4",
"-	c #E6E6E6",
";	c #F3F3F3",
">	c #F5F5F6",
",	c #C0C0C5",
"'	c #F3F3F4",
")	c #F0F0F0",
"!	c #B7B4C3",
"~	c #B7B5C4",
"{	c #F5F5F5",
"]	c #A19DB2",
"^	c #EEEEEE",
"/	c #B6B4C3",
"(	c #B7B5C3",
"_	c #B3B1C1",
":	c #B5B3C1",
"<	c #EAEAEB",
"[	c #EFEFEF",
"}	c #A19EB2",
"|	c #A09CB1",
"1	c #928FA2",
"2	c #676571",
"3	c #D3D3D3",
"4	c #2A2A2A",
"5	c #090909",
"6	c #8B8B8B",
"7	c #0F0F0E",
"8	c #2A2A29",
"9	c #70706F",
"0	c #898988",
"a	c #A8A8A8",
"b	c #0E0E0D",
"c	c #D1D1D1",
"d	c #ECECEC",
"e	c #EBEBEB",
"f	c #D9D9D9",
"g	c #C1C1C1",
"h	c #B7B7B7",
"i	c #BCBCBC",
"j	c #141413",
"k	c #7F7F7E",
"l	c #B6B6B5",
"m	c #C8C8C7",
"n	c #C0C0C0",
"o	c #949494",
"p	c #E5E5E5",
"q	c #5D5D5C",
"r	c #242423",
"s	c #9A9A99",
"t	c #C8C8C8",
"u	c #C5C5C5",
"v	c #E8E8E8",
"w	c #BABABA",
"x	c #DEDEDE",
"y	c #D5D5D5",
"z	c #C2C2C2",
"A	c #B3B3B3",
"B	c #909090",
"C	c #B6B6B6",
"D	c #C4C4C4",
"E	c #1F1F1D",
"F	c #000000",
"                        ",
"   .........+           ",
" +@#########$%          ",
" .#&*******=-.          ",
" .;*>,,>,,'*).          ",
" .)*!~~~>{]*).          ",
" .^*/(_:<<]*[.          ",
" .^*}}|}<<]*^.          ",
" .#*]]]]]12.........+   ",
" .;3*****4@#########$%  ",
" 56######.#&*******=-.  ",
" 7890aaaa.;*>,,>,,'*).  ",
" b;)cdeee.)*!~~~>{]*).  ",
" bfghiiii.^*/(_:<<]*[.  ",
" j........^*}}|}<<]*^.  ",
"  klk    .#*]]]]]]]*#.  ",
"  kmk    .;3*******n#.  ",
"  k3k    56#########o.  ",
"  kpk    7890aaaa09q.r  ",
"  kpskkkkb;)cdeeetuuv.  ",
"  kwxyzABbfghiiiiCcyD.  ",
"   kkkkkkE...........F  ",
"                        ",
"                        "};
