<svg id="Layer_1" data-name="Layer 1" xmlns="http://www.w3.org/2000/svg" width="50mm" height="50mm" viewBox="0 0 141.73228 141.73228">
  <defs>
    <style>
      .cls-1 {
        fill: #46af4b;
      }

      .cls-2 {
        fill: #cd2355;
      }
    </style>
  </defs>
  <g>
    <path d="M120.397,80.45865c-.56815-5.90742-3.22385-11.16309-6.995-13.93267a17.27379,17.27379,0,0,0-3.24656-6.31353,19.36966,19.36966,0,0,0-6.892-13.02018,7.27722,7.27722,0,0,0,1.59572-1.944c4.57759-2.04455,7.80508-6.33776,8.1794-9.53072a12.5259,12.5259,0,0,0,3.95675-8.20484,7.846,7.846,0,0,0-.69989-3.69357,7.01847,7.01847,0,0,0,1.82922-7.2442c-1.36677-3.95887-6.15514-6.52856-12.58679-6.80113A10.13626,10.13626,0,0,0,98.52937,7.374a16.203,16.203,0,0,0-3.78352.46578,8.61261,8.61261,0,0,0-3.719-.75319,14.555,14.555,0,0,0-7.0952,1.934,6.5202,6.5202,0,0,0-.85646-.05542c-3.193-.0003-6.38471,2.19991-8.00284,3.51125a24.2642,24.2642,0,0,0-4.2063,4.38226,24.27017,24.27017,0,0,0-4.206-4.38195c-1.61814-1.31135-4.80988-3.51126-8.00254-3.51156a6.525,6.525,0,0,0-.85677.05542,14.55806,14.55806,0,0,0-7.09489-1.934,8.614,8.614,0,0,0-3.71931.75319A16.201,16.201,0,0,0,43.203,7.374a10.13676,10.13676,0,0,0-7.00858,2.39979c-6.432.27257-11.22033,2.84226-12.5871,6.80143a7.018,7.018,0,0,0,1.82922,7.2439A7.84794,7.84794,0,0,0,24.737,27.513a12.52529,12.52529,0,0,0,3.95675,8.20454c.37432,3.19326,3.60181,7.48617,8.1794,9.53072a7.27538,7.27538,0,0,0,1.59542,1.944,19.37028,19.37028,0,0,0-6.89168,13.02018A17.27118,17.27118,0,0,0,28.33031,66.526c-3.77111,2.76958-6.42681,8.02525-6.99495,13.93236-.56482,5.87168,1.046,11.35328,4.32471,14.82547a20.99222,20.99222,0,0,0,3.56516,8.18667,21.30368,21.30368,0,0,0,5.378,12.42629,22.01533,22.01533,0,0,0,11.859,7.04734,28.71359,28.71359,0,0,0,9.48469,5.87137A20.881,20.881,0,0,0,70.866,134.64567a20.8833,20.8833,0,0,0,14.91936-5.83019,28.72034,28.72034,0,0,0,9.48469-5.87137,22.01559,22.01559,0,0,0,11.85873-7.04734,21.3036,21.3036,0,0,0,5.378-12.426,20.98659,20.98659,0,0,0,3.56517-8.187C119.35068,91.81162,120.96155,86.33,120.397,80.45865Z"/>
    <path class="cls-1" d="M82.88834,15.64565a.50715.50715,0,0,1,.64431.53875c-.16085,1.517.75688,1.32594.97375,1.05634,2.38917-2.97065,4.91974-3.64653,7.18552-3.447a.5073.5073,0,0,1,.347.81808c-.90026,1.33535.06917,1.58923.42806,1.34935,3.67706-2.299,7.18462-2.30316,8.53087-1.33751a.50652.50652,0,0,1,.03017.78741c-1.36075,1.15928-.599,1.73636-.11843,1.56042,3.73308-1.31743,8.88679-.15193,10.68462,1.36809a.511.511,0,0,1,.01278.77323,10.12618,10.12618,0,0,0-3.89825,6.80014c-.10141.89409,1.38228.706,2.00839.54492a.50694.50694,0,0,1,.63161.47341c.05646,2.14911-1.97606,4.51144-5.00017,6.53158-.405.27055-.34746.91972.57694.94363a.50088.50088,0,0,1,.43014.75445c-1.0784,2.00172-2.545,3.88636-7.54009,5.18055a.51181.51181,0,0,0-.07052.96565.48972.48972,0,0,1,.15941.86532c-4.97342,4.27273-17.58014,2.58829-19.18036-4.603a.50477.50477,0,0,1,.09069-.4114A47.92158,47.92158,0,0,1,100.721,21.25148a.3975.3975,0,0,0-.19687-.76539,34.186,34.186,0,0,0-22.704,13.68742.512.512,0,0,1-.65061.14752C69.08866,30.14885,75.72444,17.82948,82.88834,15.64565Z"/>
    <path class="cls-1" d="M35.37668,35.161a.50084.50084,0,0,1,.43005-.75445c.92449-.02391.982-.67308.57694-.94363-3.02411-2.02014-5.05663-4.38247-5.00007-6.53158a.5069.5069,0,0,1,.6316-.47341c.626.16108,2.10971.34917,2.0083-.54492a10.126,10.126,0,0,0-3.89816-6.80014.51094.51094,0,0,1,.0127-.77323c1.79782-1.52,6.95154-2.68552,10.6847-1.36809.48048.17594,1.24223-.40114-.11843-1.56042a.50652.50652,0,0,1,.03008-.78741c1.34634-.96565,4.85381-.96146,8.53087,1.33751.3589.23988,1.32833-.014.42815-1.34935a.5073.5073,0,0,1,.34692-.81808c2.26588-.19954,4.79644.47634,7.18561,3.447.21678.2696,1.13461.46062.97375-1.05634a.50711.50711,0,0,1,.64422-.53875c7.164,2.18383,13.79977,14.5032,5.71877,18.67538a.512.512,0,0,1-.65061-.14752A34.18579,34.18579,0,0,0,41.20821,20.48609a.3975.3975,0,0,0-.19688.76539,47.92145,47.92145,0,0,1,20.90622,15.9066.50472.50472,0,0,1,.0906.4114c-1.60022,7.19128-14.20694,8.87572-19.18035,4.603a.48975.48975,0,0,1,.15941-.86532.51183.51183,0,0,0-.07043-.96565C37.92166,39.04731,36.455,37.16267,35.37668,35.161Z"/>
    <path class="cls-2" d="M102.70391,57.14512c2.07215,5.51262.45788,8.1631-4.45781,5.35681a35.23186,35.23186,0,0,1-10.324-8.6538c-3.70264-4.39923-1.29618-6.3588,4.53643-5.30214A15.74307,15.74307,0,0,1,102.70391,57.14512Z"/>
    <path class="cls-2" d="M80.656,50.9434c7.02971,5.84278-1.02445,9.97893-9.78984,9.97893s-16.81947-4.13615-9.78976-9.97893a15.62992,15.62992,0,0,1,19.5796,0Z"/>
    <path class="cls-2" d="M39.02843,57.14512A15.74294,15.74294,0,0,1,49.27372,48.546c5.83261-1.05666,8.23916.90291,4.53644,5.30214a35.232,35.232,0,0,1-10.324,8.6538C38.57056,65.30822,36.95628,62.65774,39.02843,57.14512Z"/>
    <path class="cls-2" d="M28.86006,87.77634a15.73764,15.73764,0,0,1,1.16828-13.39206c2.59721-4.419,5.21118-4.2431,6.24869-.49944a23.47909,23.47909,0,0,1-1.35309,15.47529C33.00057,93.18313,30.595,91.89119,28.86006,87.77634Z"/>
    <path class="cls-2" d="M47.58848,116.39963A15.64491,15.64491,0,0,1,35.82,102.43657C36.79507,79.749,69.49268,120.26554,47.58848,116.39963Z"/>
    <path class="cls-2" d="M48.254,88.14263c-5.48323-3.16572-6.9343-10.91794-3.24093-17.31507s11.13243-9.01664,16.61566-5.85087c5.48323,3.16572,6.9343,10.918,3.24094,17.31507S53.73709,91.3084,48.254,88.14263Z"/>
    <path class="cls-2" d="M80.0159,125.05829a15.6584,15.6584,0,0,1-18.29955,0c-5.43318-3.75194.03278-8.06894,9.14978-8.06894S85.44917,121.30635,80.0159,125.05829Z"/>
    <ellipse class="cls-2" cx="70.86613" cy="100.39562" rx="12.72753" ry="10.90937"/>
    <path class="cls-2" d="M76.86255,82.29176c-3.69336-6.39709-2.24229-14.14935,3.24094-17.31507,5.48323-3.16577,12.9223-.54622,16.61567,5.85087s2.24229,14.14935-3.24094,17.31507C87.99516,91.3084,80.55592,88.68885,76.86255,82.29176Z"/>
    <path class="cls-2" d="M94.14377,116.39963c-21.9042,3.86591,10.79341-36.65066,11.7686-13.96306A15.64488,15.64488,0,0,1,94.14377,116.39963Z"/>
    <path class="cls-2" d="M112.87229,87.77634c-1.73505,4.11485-4.14061,5.40679-6.064,1.58379a23.47913,23.47913,0,0,1-1.353-15.47529c1.03742-3.74366,3.65139-3.9196,6.2486.49944A15.73769,15.73769,0,0,1,112.87229,87.77634Z"/>
  </g>
</svg>
