<?xml version="1.0" encoding="UTF-8" standalone="no"?>
<!-- Generator: Adobe Illustrator 24.3.0, SVG Export Plug-In . SVG Version: 6.00 Build 0)  -->

<svg
   xmlns:dc="http://purl.org/dc/elements/1.1/"
   xmlns:cc="http://creativecommons.org/ns#"
   xmlns:rdf="http://www.w3.org/1999/02/22-rdf-syntax-ns#"
   xmlns:svg="http://www.w3.org/2000/svg"
   xmlns="http://www.w3.org/2000/svg"
   xmlns:sodipodi="http://sodipodi.sourceforge.net/DTD/sodipodi-0.dtd"
   xmlns:inkscape="http://www.inkscape.org/namespaces/inkscape"
   version="1.1"
   id="Layer_1"
   x="0px"
   y="0px"
   viewBox="0 0 231.43986 61.396812"
   xml:space="preserve"
   sodipodi:docname="logo.svg"
   width="231.43987"
   height="61.39682"
   inkscape:version="0.92.5 (2060ec1f9f, 2020-04-08)"><metadata
   id="metadata6202"><rdf:RDF><cc:Work
       rdf:about=""><dc:format>image/svg+xml</dc:format><dc:type
         rdf:resource="http://purl.org/dc/dcmitype/StillImage" /></cc:Work></rdf:RDF></metadata><defs
   id="defs6200">

	</defs><sodipodi:namedview
   pagecolor="#ffffff"
   bordercolor="#666666"
   borderopacity="1"
   objecttolerance="10"
   gridtolerance="10"
   guidetolerance="10"
   inkscape:pageopacity="0"
   inkscape:pageshadow="2"
   inkscape:window-width="1920"
   inkscape:window-height="1081"
   id="namedview6198"
   showgrid="false"
   inkscape:zoom="3.1460265"
   inkscape:cx="146.61494"
   inkscape:cy="35.501241"
   inkscape:window-x="0"
   inkscape:window-y="32"
   inkscape:window-maximized="1"
   inkscape:current-layer="Layer_1" />
<style
   type="text/css"
   id="style6081">
	.st0{enable-background:new    ;}
	.st1{fill:#1E1E1E;}
	.st2{fill:#C31C4A;}
	.st3{fill:#6ABF4B;}
</style>
<g
   id="g6332"
   transform="matrix(0.63209031,0,0,0.63209031,-0.16434348,-45.049552)"><g
     transform="translate(-73.51,57.850753)"
     style="enable-background:new"
     id="g6105"
     class="st0">
			<path
   style="fill:#1e1e1e"
   inkscape:connector-curvature="0"
   id="path6083"
   d="M 85.34,42.72 H 80.21 V 54.16 H 73.77 V 22.91 h 11.61 c 3.69,0 6.54,0.82 8.54,2.47 2,1.65 3.01,3.97 3.01,6.98 0,2.13 -0.46,3.91 -1.38,5.33 -0.92,1.42 -2.32,2.56 -4.2,3.4 l 6.76,12.77 v 0.3 H 91.2 Z M 80.21,37.5 h 5.2 c 1.62,0 2.87,-0.41 3.76,-1.23 0.89,-0.82 1.33,-1.96 1.33,-3.4 0,-1.47 -0.42,-2.63 -1.26,-3.48 -0.84,-0.84 -2.12,-1.27 -3.85,-1.27 h -5.17 v 9.38 z"
   class="st1" />
			<path
   style="fill:#1e1e1e"
   inkscape:connector-curvature="0"
   id="path6085"
   d="m 114.88,54.16 c -0.29,-0.56 -0.49,-1.25 -0.62,-2.08 -1.5,1.67 -3.46,2.51 -5.86,2.51 -2.28,0 -4.16,-0.66 -5.66,-1.98 -1.5,-1.32 -2.24,-2.98 -2.24,-4.98 0,-2.46 0.91,-4.35 2.74,-5.67 1.83,-1.32 4.46,-1.98 7.91,-2 H 114 v -1.33 c 0,-1.07 -0.28,-1.93 -0.83,-2.58 -0.55,-0.64 -1.42,-0.97 -2.61,-0.97 -1.04,0 -1.86,0.25 -2.46,0.75 -0.59,0.5 -0.89,1.19 -0.89,2.06 h -6.2 c 0,-1.35 0.42,-2.59 1.25,-3.74 0.83,-1.15 2,-2.04 3.52,-2.69 1.52,-0.65 3.22,-0.98 5.11,-0.98 2.86,0 5.13,0.72 6.82,2.16 1.68,1.44 2.52,3.46 2.52,6.06 v 10.1 c 0.01,2.2 0.32,3.87 0.92,5 v 0.37 z m -5.13,-4.31 c 0.92,0 1.76,-0.2 2.53,-0.61 0.77,-0.41 1.35,-0.96 1.72,-1.64 v -4 h -2.32 c -3.11,0 -4.76,1.07 -4.96,3.22 l -0.02,0.36 c 0,0.77 0.27,1.41 0.82,1.91 0.54,0.51 1.29,0.76 2.23,0.76 z"
   class="st1" />
			<path
   style="fill:#1e1e1e"
   inkscape:connector-curvature="0"
   id="path6087"
   d="m 137.57,47.74 c 0,-0.76 -0.38,-1.36 -1.13,-1.79 -0.75,-0.44 -1.96,-0.83 -3.62,-1.17 -5.52,-1.16 -8.29,-3.51 -8.29,-7.04 0,-2.06 0.85,-3.78 2.57,-5.16 1.71,-1.38 3.95,-2.07 6.71,-2.07 2.95,0 5.31,0.69 7.07,2.08 1.77,1.39 2.65,3.19 2.65,5.41 h -6.2 c 0,-0.89 -0.29,-1.62 -0.86,-2.2 -0.57,-0.58 -1.47,-0.87 -2.68,-0.87 -1.04,0 -1.85,0.24 -2.43,0.71 -0.57,0.47 -0.86,1.07 -0.86,1.8 0,0.69 0.33,1.24 0.98,1.66 0.65,0.42 1.75,0.79 3.3,1.09 1.55,0.3 2.85,0.65 3.91,1.04 3.28,1.2 4.92,3.28 4.92,6.25 0,2.12 -0.91,3.83 -2.73,5.14 -1.82,1.31 -4.17,1.96 -7.04,1.96 -1.95,0 -3.67,-0.35 -5.18,-1.04 -1.51,-0.69 -2.69,-1.65 -3.55,-2.85 -0.86,-1.21 -1.29,-2.52 -1.29,-3.92 h 5.88 c 0.06,1.1 0.46,1.95 1.22,2.53 0.76,0.59 1.77,0.88 3.05,0.88 1.19,0 2.09,-0.23 2.69,-0.68 0.61,-0.44 0.91,-1.03 0.91,-1.76 z"
   class="st1" />
			<path
   style="fill:#1e1e1e"
   inkscape:connector-curvature="0"
   id="path6089"
   d="m 168.51,42.76 c 0,3.58 -0.81,6.44 -2.44,8.6 -1.62,2.15 -3.82,3.23 -6.58,3.23 -2.35,0 -4.24,-0.82 -5.69,-2.45 v 10.95 h -6.2 V 30.93 h 5.75 l 0.21,2.28 c 1.5,-1.8 3.46,-2.71 5.88,-2.71 2.86,0 5.09,1.06 6.68,3.18 1.59,2.12 2.38,5.04 2.38,8.76 z m -6.21,-0.45 c 0,-2.16 -0.38,-3.83 -1.15,-5 -0.77,-1.17 -1.88,-1.76 -3.34,-1.76 -1.95,0 -3.28,0.75 -4.01,2.23 v 9.51 c 0.76,1.53 2.11,2.3 4.06,2.3 2.96,0 4.44,-2.43 4.44,-7.28 z"
   class="st1" />
			<path
   style="fill:#1e1e1e"
   inkscape:connector-curvature="0"
   id="path6091"
   d="m 193.28,42.76 c 0,3.72 -0.79,6.62 -2.38,8.71 -1.59,2.08 -3.81,3.12 -6.65,3.12 -2.52,0 -4.53,-0.97 -6.03,-2.9 l -0.28,2.47 h -5.58 V 21.19 h 6.2 v 11.83 c 1.43,-1.67 3.31,-2.51 5.65,-2.51 2.83,0 5.06,1.04 6.67,3.12 1.61,2.08 2.42,5.01 2.42,8.79 v 0.34 z m -6.2,-0.45 c 0,-2.35 -0.37,-4.06 -1.12,-5.14 -0.74,-1.08 -1.85,-1.62 -3.33,-1.62 -1.98,0 -3.33,0.81 -4.08,2.43 v 9.17 c 0.76,1.63 2.13,2.45 4.12,2.45 2,0 3.32,-0.99 3.95,-2.96 0.31,-0.96 0.46,-2.39 0.46,-4.33 z"
   class="st1" />
			<path
   style="fill:#1e1e1e"
   inkscape:connector-curvature="0"
   id="path6093"
   d="m 207.8,54.59 c -3.41,0 -6.18,-1.04 -8.32,-3.13 -2.14,-2.09 -3.21,-4.87 -3.21,-8.35 v -0.6 c 0,-2.33 0.45,-4.42 1.35,-6.26 0.9,-1.84 2.18,-3.26 3.83,-4.25 1.65,-0.99 3.54,-1.49 5.66,-1.49 3.18,0 5.68,1 7.5,3.01 1.82,2.01 2.74,4.84 2.74,8.52 v 2.53 h -14.79 c 0.2,1.52 0.81,2.73 1.81,3.65 1,0.92 2.29,1.37 3.83,1.37 2.39,0 4.26,-0.87 5.6,-2.6 l 3.05,3.41 c -0.93,1.32 -2.19,2.34 -3.78,3.08 -1.58,0.74 -3.34,1.11 -5.27,1.11 z m -0.71,-19.08 c -1.23,0 -2.23,0.42 -3,1.25 -0.77,0.83 -1.26,2.03 -1.47,3.58 h 8.63 v -0.5 c -0.03,-1.38 -0.4,-2.45 -1.12,-3.2 -0.71,-0.76 -1.73,-1.13 -3.04,-1.13 z"
   class="st1" />
			<path
   style="fill:#1e1e1e"
   inkscape:connector-curvature="0"
   id="path6095"
   d="m 233.92,36.75 c -0.84,-0.12 -1.59,-0.17 -2.23,-0.17 -2.35,0 -3.89,0.79 -4.62,2.38 v 15.2 h -6.21 V 30.93 h 5.86 l 0.17,2.77 c 1.25,-2.13 2.97,-3.2 5.17,-3.2 0.69,0 1.33,0.09 1.93,0.28 z"
   class="st1" />
			<path
   style="fill:#1e1e1e"
   inkscape:connector-curvature="0"
   id="path6097"
   d="m 249.96,36.75 c -0.84,-0.12 -1.59,-0.17 -2.23,-0.17 -2.35,0 -3.88,0.79 -4.62,2.38 v 15.2 h -6.2 V 30.93 h 5.86 l 0.17,2.77 c 1.25,-2.13 2.97,-3.2 5.17,-3.2 0.69,0 1.33,0.09 1.93,0.28 z"
   class="st1" />
			<path
   style="fill:#1e1e1e"
   inkscape:connector-curvature="0"
   id="path6099"
   d="m 262,45.38 4.29,-14.45 h 6.66 l -9.34,26.83 -0.51,1.22 c -1.39,3.03 -3.68,4.55 -6.87,4.55 -0.9,0 -1.82,-0.14 -2.75,-0.41 v -4.7 l 0.95,0.02 c 1.17,0 2.05,-0.18 2.63,-0.54 0.58,-0.36 1.03,-0.95 1.36,-1.78 l 0.73,-1.91 -8.14,-23.29 h 6.68 z"
   class="st1" />
			<path
   style="fill:#1e1e1e"
   inkscape:connector-curvature="0"
   id="path6101"
   d="m 293.2,43.15 v 11.01 h -6.44 V 22.91 h 12.19 c 2.35,0 4.41,0.43 6.19,1.29 1.78,0.86 3.15,2.08 4.11,3.66 0.96,1.58 1.44,3.38 1.44,5.4 0,3.06 -1.05,5.48 -3.14,7.25 -2.09,1.77 -5,2.65 -8.71,2.65 h -5.64 z m 0,-5.22 h 5.75 c 1.7,0 3,-0.4 3.9,-1.2 0.89,-0.8 1.34,-1.95 1.34,-3.44 0,-1.53 -0.45,-2.77 -1.35,-3.71 -0.9,-0.94 -2.15,-1.43 -3.74,-1.46 h -5.9 z"
   class="st1" />
			<path
   style="fill:#1e1e1e"
   inkscape:connector-curvature="0"
   id="path6103"
   d="m 314.66,24.92 c 0,-0.93 0.31,-1.7 0.93,-2.3 0.62,-0.6 1.47,-0.9 2.54,-0.9 1.06,0 1.9,0.3 2.53,0.9 0.63,0.6 0.94,1.37 0.94,2.3 0,0.94 -0.32,1.72 -0.96,2.32 -0.64,0.6 -1.48,0.9 -2.52,0.9 -1.04,0 -1.89,-0.3 -2.52,-0.9 -0.62,-0.6 -0.94,-1.37 -0.94,-2.32 z m 6.59,29.24 h -6.23 V 30.93 h 6.23 z"
   class="st1" />
		</g><g
     transform="translate(-73.51,57.850753)"
     style="enable-background:new"
     id="g6115"
     class="st0">
			<path
   style="fill:#1e1e1e"
   inkscape:connector-curvature="0"
   id="path6107"
   d="m 352.17,41.43 v 12.73 h -2.64 V 22.91 h 10.65 c 3.25,0 5.81,0.83 7.7,2.49 1.88,1.66 2.82,3.94 2.82,6.85 0,2.93 -0.91,5.2 -2.72,6.79 -1.81,1.59 -4.43,2.39 -7.87,2.39 z m 0,-2.23 h 8.01 c 2.56,0 4.52,-0.61 5.86,-1.83 1.35,-1.22 2.02,-2.92 2.02,-5.1 0,-2.16 -0.67,-3.89 -2.01,-5.17 -1.34,-1.28 -3.24,-1.94 -5.7,-1.97 h -8.18 z"
   class="st1" />
			<path
   style="fill:#1e1e1e"
   inkscape:connector-curvature="0"
   id="path6109"
   d="m 375.85,24.23 c 0,-0.48 0.16,-0.89 0.47,-1.23 0.32,-0.33 0.74,-0.5 1.29,-0.5 0.55,0 0.98,0.17 1.3,0.5 0.32,0.33 0.48,0.74 0.48,1.23 0,0.48 -0.16,0.89 -0.48,1.22 -0.32,0.33 -0.75,0.49 -1.3,0.49 -0.55,0 -0.97,-0.16 -1.29,-0.49 -0.31,-0.33 -0.47,-0.74 -0.47,-1.22 z m 3.03,29.93 H 376.3 V 30.93 h 2.58 z"
   class="st1" />
			<path
   style="fill:#1e1e1e"
   inkscape:connector-curvature="0"
   id="path6111"
   d="m 394.44,52.42 c 1.79,0 3.29,-0.5 4.5,-1.51 1.21,-1.01 1.86,-2.32 1.96,-3.92 h 2.47 c -0.07,1.42 -0.52,2.71 -1.33,3.88 -0.82,1.17 -1.9,2.08 -3.25,2.74 -1.35,0.66 -2.8,0.99 -4.35,0.99 -3.05,0 -5.46,-1.06 -7.25,-3.18 -1.79,-2.12 -2.67,-4.97 -2.67,-8.54 V 42.1 c 0,-2.29 0.4,-4.31 1.2,-6.08 0.8,-1.77 1.95,-3.12 3.45,-4.08 1.5,-0.96 3.24,-1.44 5.25,-1.44 2.55,0 4.65,0.76 6.3,2.28 1.65,1.52 2.54,3.51 2.65,5.99 h -2.47 c -0.11,-1.82 -0.77,-3.28 -1.96,-4.4 -1.2,-1.12 -2.7,-1.67 -4.52,-1.67 -2.32,0 -4.12,0.84 -5.4,2.51 -1.28,1.67 -1.92,4.02 -1.92,7.04 V 43 c 0,2.96 0.64,5.27 1.92,6.93 1.28,1.66 3.09,2.49 5.42,2.49 z"
   class="st1" />
			<path
   style="fill:#1e1e1e"
   inkscape:connector-curvature="0"
   id="path6113"
   d="m 407.08,42.21 c 0,-2.23 0.43,-4.24 1.3,-6.03 0.87,-1.79 2.09,-3.18 3.67,-4.18 1.58,-0.99 3.37,-1.49 5.38,-1.49 3.09,0 5.6,1.08 7.51,3.25 1.91,2.17 2.88,5.04 2.88,8.62 v 0.54 c 0,2.25 -0.43,4.27 -1.3,6.06 -0.87,1.79 -2.09,3.18 -3.66,4.15 -1.57,0.97 -3.37,1.46 -5.39,1.46 -3.08,0 -5.58,-1.08 -7.5,-3.25 -1.92,-2.17 -2.89,-5.04 -2.89,-8.62 z m 2.58,0.7 c 0,2.78 0.72,5.06 2.16,6.84 1.44,1.78 3.32,2.67 5.66,2.67 2.32,0 4.2,-0.89 5.64,-2.67 1.44,-1.78 2.16,-4.13 2.16,-7.05 v -0.49 c 0,-1.77 -0.33,-3.4 -0.99,-4.87 -0.66,-1.47 -1.58,-2.62 -2.77,-3.42 -1.19,-0.81 -2.55,-1.21 -4.08,-1.21 -2.29,0 -4.16,0.9 -5.6,2.69 -1.45,1.8 -2.17,4.15 -2.17,7.05 v 0.46 z"
   class="st1" />
		</g><path
     style="fill:#c31c4a"
     inkscape:connector-curvature="0"
     id="path6117"
     d="m 274.43,121.33075 c -6.39,0 -11.58,-5.2 -11.58,-11.58 V 82.850753 c 0,-6.39 5.2,-11.58 11.58,-11.58 h 80.4 c 6.39,0 11.58,5.2 11.58,11.58 v 26.799997 c 0,6.39 -5.2,11.58 -11.58,11.58 h -79.02 z m -1.33,-2.86 h 81.73 c 4.86,0 8.82,-3.96 8.82,-8.82 V 82.850753 c 0,-4.86 -3.96,-8.82 -8.82,-8.82 h -80.4 c -4.86,0 -8.82,3.96 -8.82,8.82 v 26.899997 c 0,4.41 3.25,8.07 7.49,8.72 z"
     class="st2" /></g><g
   id="g6350"
   transform="matrix(0.84770507,0,0,0.84770507,0.18908311,-61.910993)"><path
     inkscape:connector-curvature="0"
     id="path6161"
     d="m 5.2185549,138.93075 c -1.61,-0.46 -2.78,-1.03 -3.51,-1.7 -0.73000003,-0.67 -1.10000003,-1.51 -1.10000003,-2.5 0,-1.12 0.45000003,-2.05 1.34000003,-2.78 0.89,-0.73 2.06,-1.1 3.49,-1.1 0.98,0 1.85,0.19 2.61,0.57 0.76,0.38 1.36,0.9 1.78,1.56 0.4200001,0.66 0.6300001,1.39 0.6300001,2.18 H 8.5785549 c 0,-0.86 -0.27,-1.54 -0.82,-2.03 -0.55,-0.49 -1.32,-0.74 -2.31,-0.74 -0.92,0 -1.65,0.2 -2.16,0.61 -0.52,0.41 -0.78,0.97 -0.78,1.7 0,0.58 0.25,1.07 0.74,1.47 0.49,0.4 1.33,0.77 2.51,1.1 1.18,0.33 2.11,0.7 2.77,1.1 0.66,0.4 1.16,0.87 1.4800001,1.4 0.32,0.53 0.48,1.16 0.48,1.88 0,1.15 -0.45,2.08 -1.3500001,2.77 -0.9,0.69 -2.1,1.04 -3.6,1.04 -0.98,0 -1.89,-0.19 -2.73,-0.56 -0.84,-0.37 -1.5,-0.89 -1.96000003,-1.54 -0.46,-0.65 -0.69,-1.39 -0.69,-2.22 H 2.0385549 c 0,0.86 0.32,1.54 0.95,2.04 0.63,0.5 1.48,0.75 2.54,0.75 0.99,0 1.75,-0.2 2.28,-0.61 0.53,-0.41 0.79,-0.95 0.79,-1.65 0,-0.7 -0.24,-1.24 -0.73,-1.62 -0.49,-0.38 -1.37,-0.75 -2.65,-1.12 z" /><path
     inkscape:connector-curvature="0"
     id="path6163"
     d="m 12.898555,145.26075 v -14.22 h 4.01 c 1.24,0 2.33,0.27 3.28,0.82 0.95,0.55 1.68,1.33 2.2,2.33 0.52,1 0.78,2.17 0.79,3.48 v 0.91 c 0,1.34 -0.26,2.52 -0.78,3.53 -0.52,1.01 -1.26,1.78 -2.22,2.32 -0.96,0.54 -2.08,0.82 -3.35,0.83 z m 1.87,-12.68 v 11.15 h 1.97 c 1.45,0 2.57,-0.45 3.37,-1.35 0.8,-0.9 1.21,-2.18 1.21,-3.84 v -0.83 c 0,-1.62 -0.38,-2.87 -1.14,-3.77 -0.76,-0.9 -1.83,-1.35 -3.23,-1.36 z" /><path
     inkscape:connector-curvature="0"
     id="path6165"
     d="m 29.618555,138.65075 -1.74,1.81 v 4.8 h -1.88 v -14.22 h 1.88 v 7.03 l 6.32,-7.03 h 2.27 l -5.6,6.28 6.04,7.94 h -2.25 z" /><path
     inkscape:connector-curvature="0"
     id="path6167"
     d="m 43.498555,145.26075 v -14.22 h 4.01 c 1.24,0 2.33,0.27 3.28,0.82 0.95,0.55 1.68,1.33 2.2,2.33 0.52,1 0.78,2.17 0.79,3.48 v 0.91 c 0,1.34 -0.26,2.52 -0.78,3.53 -0.52,1.01 -1.26,1.78 -2.22,2.32 -0.96,0.54 -2.08,0.82 -3.35,0.83 z m 1.88,-12.68 v 11.15 h 1.97 c 1.45,0 2.57,-0.45 3.37,-1.35 0.8,-0.9 1.21,-2.18 1.21,-3.84 v -0.83 c 0,-1.62 -0.38,-2.87 -1.14,-3.77 -0.76,-0.9 -1.83,-1.35 -3.23,-1.36 z" /><path
     inkscape:connector-curvature="0"
     id="path6169"
     d="m 55.858555,139.88075 c 0,-1.04 0.2,-1.97 0.61,-2.79 0.41,-0.82 0.97,-1.46 1.7,-1.91 0.73,-0.45 1.55,-0.67 2.49,-0.67 1.44,0 2.6,0.5 3.49,1.49 0.89,0.99 1.33,2.32 1.33,3.97 v 0.13 c 0,1.03 -0.2,1.95 -0.59,2.77 -0.39,0.82 -0.96,1.45 -1.69,1.91 -0.73,0.46 -1.57,0.68 -2.52,0.68 -1.43,0 -2.59,-0.5 -3.48,-1.49 -0.89,-0.99 -1.33,-2.31 -1.33,-3.96 v -0.13 z m 1.81,0.22 c 0,1.17 0.27,2.11 0.82,2.82 0.55,0.71 1.27,1.06 2.18,1.06 0.92,0 1.65,-0.36 2.19,-1.08 0.54,-0.72 0.81,-1.73 0.81,-3.02 0,-1.16 -0.27,-2.1 -0.83,-2.82 -0.56,-0.72 -1.28,-1.08 -2.19,-1.08 -0.89,0 -1.61,0.35 -2.16,1.06 -0.55,0.71 -0.82,1.74 -0.82,3.06 z" /><path
     inkscape:connector-curvature="0"
     id="path6171"
     d="m 71.978555,143.98075 c 0.64,0 1.21,-0.2 1.69,-0.59 0.48,-0.39 0.75,-0.88 0.8,-1.46 h 1.71 c -0.03,0.61 -0.24,1.18 -0.62,1.73 -0.38,0.55 -0.9,0.98 -1.54,1.31 -0.64,0.33 -1.32,0.49 -2.04,0.49 -1.44,0 -2.58,-0.48 -3.43,-1.44 -0.85,-0.96 -1.27,-2.27 -1.27,-3.94 v -0.3 c 0,-1.03 0.19,-1.94 0.57,-2.74 0.38,-0.8 0.92,-1.42 1.63,-1.87 0.71,-0.45 1.54,-0.66 2.5,-0.66 1.19,0 2.17,0.35 2.95,1.06 0.78,0.71 1.2,1.63 1.25,2.76 h -1.71 c -0.05,-0.68 -0.31,-1.25 -0.78,-1.68 -0.47,-0.43 -1.04,-0.66 -1.72,-0.66 -0.92,0 -1.63,0.33 -2.13,0.99 -0.5,0.66 -0.76,1.62 -0.76,2.87 v 0.34 c 0,1.22 0.25,2.16 0.75,2.81 0.5,0.65 1.22,0.98 2.15,0.98 z" /><path
     inkscape:connector-curvature="0"
     id="path6173"
     d="m 84.728555,144.22075 c -0.7,0.83 -1.73,1.24 -3.1,1.24 -1.13,0 -1.98,-0.33 -2.57,-0.98 -0.59,-0.65 -0.89,-1.62 -0.89,-2.91 v -6.88 h 1.81 v 6.83 c 0,1.6 0.65,2.4 1.95,2.4 1.38,0 2.3,-0.51 2.75,-1.54 v -7.69 h 1.81 v 10.57 h -1.72 z" /><path
     inkscape:connector-curvature="0"
     id="path6175"
     d="m 90.928555,134.70075 0.05,1.17 c 0.77,-0.91 1.82,-1.37 3.13,-1.37 1.48,0 2.48,0.57 3.02,1.7 0.35,-0.51 0.81,-0.92 1.37,-1.23 0.56,-0.31 1.23,-0.47 1.999995,-0.47 2.32,0 3.5,1.23 3.53,3.68 v 7.08 h -1.81 v -6.97 c 0,-0.75 -0.17,-1.32 -0.52,-1.69 -0.35,-0.37 -0.92,-0.56 -1.739995,-0.56 -0.67,0 -1.23,0.2 -1.67,0.6 -0.44,0.4 -0.7,0.94 -0.77,1.62 v 7.01 h -1.82 v -6.92 c 0,-1.54 -0.75,-2.3 -2.26,-2.3 -1.19,0 -2,0.5 -2.43,1.51 v 7.71 h -1.79 v -10.57 z" /><path
     inkscape:connector-curvature="0"
     id="path6177"
     d="m 111.14855,145.46075 c -1.43,0 -2.6,-0.47 -3.5,-1.41 -0.9,-0.94 -1.35,-2.2 -1.35,-3.77 v -0.33 c 0,-1.05 0.2,-1.98 0.6,-2.81 0.4,-0.83 0.96,-1.47 1.68,-1.93 0.72,-0.46 1.5,-0.7 2.34,-0.7 1.37,0 2.44,0.45 3.2,1.36 0.76,0.91 1.14,2.2 1.14,3.89 v 0.75 h -7.16 c 0.03,1.04 0.33,1.88 0.91,2.52 0.58,0.64 1.32,0.96 2.22,0.96 0.64,0 1.18,-0.13 1.62,-0.39 0.44,-0.26 0.83,-0.61 1.16,-1.04 l 1.1,0.86 c -0.86,1.36 -2.19,2.04 -3.96,2.04 z m -0.23,-9.47 c -0.73,0 -1.34,0.27 -1.84,0.8 -0.5,0.53 -0.8,1.27 -0.92,2.23 h 5.29 v -0.14 c -0.05,-0.92 -0.3,-1.63 -0.74,-2.13 -0.44,-0.5 -1.03,-0.76 -1.79,-0.76 z" /><path
     inkscape:connector-curvature="0"
     id="path6179"
     d="m 119.06855,134.70075 0.06,1.33 c 0.81,-1.02 1.86,-1.52 3.16,-1.52 2.23,0 3.36,1.26 3.38,3.78 v 6.98 h -1.81 v -6.99 c -0.01,-0.76 -0.18,-1.33 -0.52,-1.69 -0.34,-0.36 -0.87,-0.55 -1.6,-0.55 -0.59,0 -1.1,0.16 -1.54,0.47 -0.44,0.31 -0.79,0.72 -1.04,1.23 v 7.53 h -1.81 v -10.57 z" /><path
     inkscape:connector-curvature="0"
     id="path6181"
     d="m 130.84855,132.14075 v 2.56 h 1.97 v 1.4 h -1.97 v 6.56 c 0,0.42 0.09,0.74 0.26,0.95 0.17,0.21 0.48,0.32 0.9,0.32 0.21,0 0.5,-0.04 0.86,-0.12 v 1.46 c -0.48,0.13 -0.94,0.19 -1.39,0.19 -0.81,0 -1.42,-0.24 -1.83,-0.73 -0.41,-0.49 -0.62,-1.18 -0.62,-2.08 v -6.55 h -1.92 v -1.4 h 1.92 v -2.56 z" /><path
     inkscape:connector-curvature="0"
     id="path6183"
     d="m 141.44855,145.26075 c -0.1,-0.21 -0.19,-0.58 -0.25,-1.11 -0.84,0.87 -1.84,1.31 -3.01,1.31 -1.04,0 -1.9,-0.29 -2.56,-0.88 -0.66,-0.59 -1,-1.34 -1,-2.24 0,-1.1 0.42,-1.96 1.25,-2.56 0.83,-0.6 2.01,-0.91 3.53,-0.91 h 1.76 v -0.83 c 0,-0.63 -0.19,-1.13 -0.57,-1.51 -0.38,-0.38 -0.93,-0.56 -1.67,-0.56 -0.64,0 -1.18,0.16 -1.62,0.49 -0.44,0.33 -0.65,0.72 -0.65,1.18 h -1.82 c 0,-0.53 0.19,-1.04 0.56,-1.53 0.37,-0.49 0.88,-0.88 1.52,-1.17 0.64,-0.29 1.35,-0.43 2.11,-0.43 1.22,0 2.17,0.3 2.86,0.91 0.69,0.61 1.05,1.45 1.07,2.51 v 4.86 c 0,0.97 0.12,1.74 0.37,2.31 v 0.16 z m -3,-1.37 c 0.57,0 1.1,-0.15 1.61,-0.44 0.51,-0.29 0.88,-0.67 1.1,-1.14 v -2.17 h -1.42 c -2.21,0 -3.32,0.65 -3.32,1.94 0,0.57 0.19,1.01 0.57,1.33 0.38,0.32 0.87,0.48 1.46,0.48 z" /><path
     inkscape:connector-curvature="0"
     id="path6185"
     d="m 148.25855,132.14075 v 2.56 h 1.97 v 1.4 h -1.97 v 6.56 c 0,0.42 0.09,0.74 0.26,0.95 0.17,0.21 0.48,0.32 0.9,0.32 0.21,0 0.5,-0.04 0.86,-0.12 v 1.46 c -0.48,0.13 -0.94,0.19 -1.39,0.19 -0.81,0 -1.42,-0.24 -1.83,-0.73 -0.41,-0.49 -0.62,-1.18 -0.62,-2.08 v -6.55 h -1.92 v -1.4 h 1.92 v -2.56 z" /><path
     inkscape:connector-curvature="0"
     id="path6187"
     d="m 152.34855,131.89075 c 0,-0.29 0.09,-0.54 0.27,-0.74 0.18,-0.2 0.44,-0.3 0.8,-0.3 0.36,0 0.62,0.1 0.8,0.3 0.18,0.2 0.27,0.45 0.27,0.74 0,0.29 -0.09,0.54 -0.27,0.73 -0.18,0.19 -0.45,0.29 -0.8,0.29 -0.35,0 -0.62,-0.1 -0.8,-0.29 -0.18,-0.19 -0.27,-0.43 -0.27,-0.73 z m 1.95,13.37 h -1.81 v -10.56 h 1.81 z" /><path
     inkscape:connector-curvature="0"
     id="path6189"
     d="m 156.70855,139.88075 c 0,-1.04 0.2,-1.97 0.61,-2.79 0.41,-0.82 0.97,-1.46 1.7,-1.91 0.73,-0.45 1.55,-0.67 2.49,-0.67 1.44,0 2.6,0.5 3.49,1.49 0.89,0.99 1.33,2.32 1.33,3.97 v 0.13 c 0,1.03 -0.2,1.95 -0.59,2.77 -0.39,0.82 -0.96,1.45 -1.69,1.91 -0.73,0.46 -1.57,0.68 -2.52,0.68 -1.43,0 -2.59,-0.5 -3.48,-1.49 -0.89,-0.99 -1.33,-2.31 -1.33,-3.96 v -0.13 z m 1.82,0.22 c 0,1.17 0.27,2.11 0.82,2.82 0.55,0.71 1.27,1.06 2.18,1.06 0.92,0 1.65,-0.36 2.19,-1.08 0.54,-0.72 0.81,-1.73 0.81,-3.02 0,-1.16 -0.28,-2.1 -0.83,-2.82 -0.55,-0.72 -1.28,-1.08 -2.19,-1.08 -0.89,0 -1.61,0.35 -2.16,1.06 -0.55,0.71 -0.82,1.74 -0.82,3.06 z" /><path
     inkscape:connector-curvature="0"
     id="path6191"
     d="m 170.30855,134.70075 0.06,1.33 c 0.81,-1.02 1.86,-1.52 3.16,-1.52 2.23,0 3.36,1.26 3.38,3.78 v 6.98 h -1.81 v -6.99 c -0.01,-0.76 -0.18,-1.33 -0.52,-1.69 -0.34,-0.36 -0.87,-0.55 -1.6,-0.55 -0.59,0 -1.1,0.16 -1.54,0.47 -0.44,0.31 -0.79,0.72 -1.04,1.23 v 7.53 h -1.81 v -10.57 z" /></g>
</svg>