<?xml version="1.0" encoding="UTF-8"?>
<svg xmlns="http://www.w3.org/2000/svg" viewBox="0 0 200 200"><g fill="#13254a"><path d="M100 .212C44.868.212 0 44.889 0 99.788c0 55.132 44.868 100 100 100s100-44.868 100-100C200 44.889 155.132.212 100 .212zm0 181.164c-44.974 0-81.587-36.614-81.587-81.587 0-44.762 36.614-81.164 81.587-81.164 44.995 0 81.587 36.402 81.587 81.164 0 44.973-36.592 81.587-81.587 81.587z" style="fill: #e6007e;"/><path d="M141.1 88.127h-29.439V58.688c0-6.392-5.185-11.598-11.598-11.598-6.413 0-11.619 5.206-11.619 11.598v29.439H58.476c-6.392 0-11.598 5.185-11.598 11.598 0 6.413 5.206 11.619 11.598 11.619h29.968v29.968c0 6.392 5.206 11.598 11.619 11.598 6.413 0 11.598-5.206 11.598-11.598v-29.968H141.1c6.392 0 11.598-5.206 11.598-11.619 0-6.413-5.206-11.598-11.598-11.598z" style="fill: #e6007e;"/></g></svg>
