<?xml version="1.0" encoding="UTF-8"?>
<svg xmlns="http://www.w3.org/2000/svg" viewBox="0 0 200 200"><g fill="#03234b"><path d="M170.934 64.569l-.04-.055-29.049 40.038-.057.079h14.867a59.366 59.366 0 0 1-1.488 15.615c-1.158 5.318-3.807 13.448-9.848 21.977-2.766 4.118-6.375 7.726-9.208 10.408-3.426 2.857-7.461 6.095-12 8.376-8.121 4.568-17.881 7.138-28.225 7.432-10.907.248-20.201-2.61-26.072-5.052-8.283-3.479-14.111-7.807-16.85-10.078-1.254-.956-2.25-1.907-3.057-2.676a28.662 28.662 0 0 0-1.157-1.069 158.874 158.874 0 0 0-1.479-1.362l-4.435-3.956 3.569 4.81.183.243c.2.263.548.722 1.048 1.389.276.334.579.747.93 1.226l.008.01c.689.939 1.546 2.107 2.664 3.322 3 3.536 8.178 8.801 15.808 13.801 5.969 3.866 15.672 8.901 28.001 10.935a79.05 79.05 0 0 0 12.485.998c7.97 0 15.651-1.228 22.828-3.649 6.366-1.877 12.192-4.981 17.053-7.771 6.16-3.936 10.817-7.586 14.654-11.488 8.084-7.899 14.884-17.913 19.15-28.199 3.259-7.594 5.456-15.727 6.529-24.175l.055-.425.083-.641H200l-29.066-40.063zM58.159 99.232l-12.655.563c-.097-.881-.159-1.986-.227-3.474a59.184 59.184 0 0 1 1.446-16.56c1.157-5.316 3.804-13.444 9.848-21.977 2.168-3.228 5.009-6.44 9.208-10.415 3.41-2.849 7.432-6.08 12.005-8.375 8.114-4.568 17.87-7.138 28.213-7.432 10.9-.25 20.196 2.607 26.072 5.045 8.258 3.473 14.105 7.812 16.857 10.091 1.257.951 2.253 1.904 3.057 2.673l.017.016c.43.411.801.766 1.136 1.051.475.438.841.777 1.091 1.01l.138.128.248.229 4.04 3.613-3.165-4.456c-.058-.083-.312-.417-.73-.971l-.507-.67a28.922 28.922 0 0 1-.901-1.192l-.02-.027c-.69-.945-1.548-2.121-2.677-3.346-3.002-3.537-8.182-8.803-15.813-13.801-5.964-3.865-15.662-8.9-27.997-10.935-8.484-1.363-21.496-2.009-35.313 2.651-6.355 1.88-12.186 4.983-17.054 7.772-6.163 3.944-10.82 7.595-14.654 11.488-8.079 7.894-14.882 17.909-19.155 28.2-3.268 7.624-5.463 15.757-6.523 24.173-.436 3.281-.642 5.421-.664 6.926L0 101.831l30.683 38.727.042.053 27.38-41.298.054-.081z" style="fill: #e6007e;"/></g></svg>
