/* XPM */
static const char *close_xpm[] = {
/* columns rows colors chars-per-pixel */
"24 24 158 2",
"   c #6D0F14",
".  c #8F141A",
"X  c #92151B",
"o  c #A1171D",
"O  c #A3171E",
"+  c #A4171E",
"@  c #A5171E",
"#  c #A7181E",
"$  c #A8181F",
"%  c #A11D24",
"&  c #A81E25",
"*  c #B41A21",
"=  c #B51A21",
"-  c #BE1B23",
";  c #AE282E",
":  c #BC2129",
">  c #AE2E34",
",  c #B82D33",
"<  c #C01D24",
"1  c #C01D25",
"2  c #C31C24",
"3  c #C51E26",
"4  c #C61F27",
"5  c #C71F27",
"6  c #C12027",
"7  c #C3222A",
"8  c #C72029",
"9  c #C5242C",
"0  c #C5262E",
"q  c #C82028",
"w  c #C92029",
"e  c #C8232B",
"r  c #CB222A",
"t  c #CB222B",
"y  c #CD232C",
"u  c #CA242C",
"i  c #C9272F",
"p  c #CD242D",
"a  c #CE242C",
"s  c #CE242D",
"d  c #CF252E",
"f  c #D0262E",
"g  c #D1272F",
"h  c #C82931",
"j  c #CD2830",
"k  c #CB2D34",
"l  c #C82E35",
"z  c #D32931",
"x  c #D52A33",
"c  c #D52B33",
"v  c #D62A33",
"b  c #D62B33",
"n  c #D22D36",
"m  c #D72C34",
"M  c #D82D35",
"N  c #D92D36",
"B  c #D82F37",
"V  c #DB2F38",
"C  c #D53239",
"Z  c #D93139",
"A  c #DD3139",
"S  c #DD313A",
"D  c #DE313A",
"F  c #DE323A",
"G  c #DF323B",
"H  c #DE333C",
"J  c #E0333C",
"K  c #E1343C",
"L  c #E1343D",
"P  c #E3363F",
"I  c #D93C44",
"U  c #E53841",
"Y  c #E63841",
"T  c #E83A42",
"R  c #EB3C45",
"E  c #EB3D46",
"W  c #EC3D46",
"Q  c #ED3D46",
"!  c #EE3E47",
"~  c #B65A5F",
"^  c #BD5D61",
"/  c #B7696C",
"(  c #BD6C70",
")  c #D2454C",
"_  c #D8454C",
"`  c #DD474E",
"'  c #D0494F",
"]  c #D14B51",
"[  c #DB4A51",
"{  c #DB4A52",
"}  c #DC4A52",
"|  c #DC4B52",
" . c #D35157",
".. c #D55259",
"X. c #D6535A",
"o. c #D4555B",
"O. c #D7545B",
"+. c #DF5259",
"@. c #DE555B",
"#. c #D9565C",
"$. c #DA575D",
"%. c #DB585E",
"&. c #E7464F",
"*. c #EE4049",
"=. c #ED464E",
"-. c #E3484F",
";. c #E64D54",
":. c #EE4B54",
">. c #E94F57",
",. c #F04D56",
"<. c #F14E57",
"1. c #E45158",
"2. c #E7545B",
"3. c #F1545D",
"4. c #DD5960",
"5. c #DE5A61",
"6. c #E05B62",
"7. c #E15D63",
"8. c #E25E64",
"9. c #E45F65",
"0. c #E55F66",
"q. c #EA5D64",
"w. c #EB5E65",
"e. c #F15E66",
"r. c #C46C71",
"t. c #C1797D",
"y. c #D37277",
"u. c #E56066",
"i. c #E9636A",
"p. c #EC676D",
"a. c #E1696F",
"s. c #E5696F",
"d. c #F0636B",
"f. c #E2747A",
"g. c #C7898C",
"h. c #DE8488",
"j. c #F1B8BB",
"k. c #F5BABD",
"l. c #EDC6C8",
"z. c #F3CACC",
"x. c #F6CBCD",
"c. c #F6CFD2",
"v. c #EFD5D6",
"b. c #EFDDDD",
"n. c #EFDDDE",
"m. c #F8D1D3",
"M. c #F0D8D9",
"N. c #F2DEDF",
"B. c #F3DEE0",
"V. c #FAE0E1",
"C. c #FBE4E5",
"Z. c #F4E8E8",
"A. c #F4E8E9",
"S. c #F7EEEE",
"D. c #FBF4F4",
"F. c #FEFEFE",
"G. c gray100",
"H. c None",
/* pixels */
"H.H.H.H.H.H.H.H.H.H.H.H.H.H.H.H.H.H.H.H.H.H.H.H.",
"H.H.H.k _ [ } { } } { } | { | | { | [ _ k H.H.H.",
"H.H.i i.d.3.<.<.<.<.<.<.<.<.<.<.<.<.,.:.&.0 H.H.",
"H.H.+.e.*.! ! ! ! ! ! ! ! ! ! ! ! ! ! ! ! Z H.H.",
"H.H.0.=.Q Q Q W Q Q W Q W Q Q W Q Q W Q Q L $ H.",
"H.H.u.E R R R R R R R R R R R R R R R R R K @ H.",
"H.H.9.T T T T T T T T T T T T T T T T T T G + H.",
"H.H.8.Y Y Y Y U Y w.q.Y Y >.p.Y U Y Y U Y A + H.",
"H.H.7.P P P P P 2.V.z.1.;.k.C.a.P P P P P V + H.",
"H.H.6.J J J J -.x.F.F.B.m.G.G.v.o.H J J J N + H.",
"H.H.5.F F F D F s.N.G.G.G.G.S.( , Z F F S m + H.",
"H.H.4.V V V V V V f.D.G.G.G.t.; n V V V V x + H.",
"H.H.%.M M M M M ` c.G.G.G.G.n.@.B M M M M z + H.",
"H.H.$.v c b b I j.G.G.A.b.F.G.l.) x b x b g + H.",
"H.H.#.z z z z C h.F.Z./ ^ M.G.g.> j z z z d + H.",
"H.H.O.f f f f f f y.~ & f ] r.% 9 f f f f y + H.",
"H.H.X.p s s s s p u : e s a 7 7 a s s a s r + H.",
"H.H...t t t t t t t t t t t t t t t t t t w + H.",
"H.H. .q q q q q q q q q q q q q q q q q q 5 O H.",
"H.H.' 8 5 5 5 5 5 5 5 5 5 4 5 5 4 5 5 4 5 1 X H.",
"H.H.l h 3 3 3 3 3 3 3 3 3 3 3 3 3 3 3 3 3 = H.H.",
"H.H.H.6 < 2 2 2 2 2 2 2 2 2 2 2 2 2 2 - *   H.H.",
"H.H.H.H.H.# + + + + + + + + + + + + o . H.H.H.H.",
"H.H.H.H.H.H.H.H.H.H.H.H.H.H.H.H.H.H.H.H.H.H.H.H."
};
