/* XPM */
static const char *exec_xpm[] = {
/* columns rows colors chars-per-pixel */
"32 32 55 1",
"  c #1677A6",
". c #077AB4",
"X c #087AB4",
"o c #087BB4",
"O c #097BB4",
"+ c #087BB5",
"@ c #0A7CB5",
"# c #0F7EB5",
"$ c #0E7EB6",
"% c #1280B6",
"& c #1481B6",
"* c #1681B7",
"= c #1682B7",
"- c #1B82B6",
"; c #1782B8",
": c #1783B8",
"> c #178BD1",
", c #1B8ED2",
"< c #1C8ED2",
"1 c #399ED9",
"2 c #3EA0DA",
"3 c #40A1DA",
"4 c #51A9E1",
"5 c #54ABE1",
"6 c #98CDEC",
"7 c #9ACEEC",
"8 c #9BCFEE",
"9 c #A9D6F1",
"0 c #B8DDF5",
"q c #D5D5D5",
"w c #D4D5D6",
"e c #D5D6D6",
"r c #DBDBDA",
"t c #DADCDC",
"y c #DFDFDF",
"u c #DFE0E1",
"i c #C1E1F8",
"p c #E3E3E2",
"a c #E2E4E4",
"s c #E7E6E7",
"d c #E6E7E8",
"f c #EAEBEB",
"g c #ECEBEA",
"h c #EEEFEF",
"j c #F0EFEE",
"k c #F2F2F3",
"l c #F4F3F3",
"z c #F5F6F6",
"x c #F8F7F6",
"c c #F9F9FA",
"v c #FCFAFB",
"b c #FDFDFD",
"n c #FFFFFE",
"m c gray100",
"M c None",
/* pixels */
"MMMMMMMMMMMMMMMMMMMMMMMMMMMMMMMM",
"MMMMMMMMMMMMMMMMMMMMMMMMMMMMMMMM",
"M-:=************************=:-M",
"M;8677777777777777777777777768;M",
"M&9>,<<<<<<<<<<<<<<<<<<<<<<,>9&M",
"M%0123333333333333333333333210%M",
"M#i45555555555555555555555554i#M",
"M@mmmmmmmmmmmmmmmmmmmmmmmmmmmm@M",
"M+mqweeeeeeeeeeeeeeeeeeeeeewqm+M",
"M+mrttttttttttttttttttttttttrm+M",
"MomyuuuuuuuuuuuuuuuuuuuuuuuuymoM",
"MompaaaaaaaaaaaaaaaaaaaaaaaapmoM",
"MomsddddddddddddddddddddddddsmoM",
"MomgffffffffffffffffffffffffgmoM",
"MXmjhhhhhhhhhhhhhhhhhhhhhhhhjmXM",
"M.mlkkkkkkkkkkkkkkkkkkkkkkkklm.M",
"M.mxzzzzzzzzzzzzzzzzzzzzzzzzxm.M",
"M.mvccccccccccccccccccccccccvm.M",
"M.mnbbbbbbbbbbbbbbbbbbbbbbbbnm.M",
"M.mmmmmmmmmmmmmmmmmmmmmmmmmmmm.M",
"M.mmmmmmmmmmmmmmmmmmmmmmmmmmmm.M",
"M.mmmmmmmmmmmmmmmmmmmmmmmmmmmm.M",
"M.mmmmmmmmmmmmmmmmmmmmmmmmmmmm.M",
"M.mmmmmmmmmmmmmmmmmmmmmmmmmmmm.M",
"M.mmmmmmmmmmmmmmmmmmmmmmmmmmmm.M",
"M.mmmmmmmmmmmmmmmmmmmmmmmmmmmm.M",
"MOmmmmmmmmmmmmmmmmmmmmmmmmmmmmOM",
"M$mmmmmmmmmmmmmmmmmmmmmmmmmmmm$M",
"M $O........................O$ M",
"MMMMMMMMMMMMMMMMMMMMMMMMMMMMMMMM",
"MMMMMMMMMMMMMMMMMMMMMMMMMMMMMMMM",
"MMMMMMMMMMMMMMMMMMMMMMMMMMMMMMMM"
};
