/* XPM */
static const char *home_gray_xpm[] = {
/* columns rows colors chars-per-pixel */
"48 48 170 2",
"   c gray18",
".  c #313131",
"X  c #323232",
"o  c #343434",
"O  c gray23",
"+  c gray24",
"@  c gray25",
"#  c gray26",
"$  c #434343",
"%  c #444444",
"&  c gray27",
"*  c #464646",
"=  c gray28",
"-  c #484848",
";  c #494949",
":  c gray30",
">  c #4E4E4E",
",  c #505050",
"<  c #515151",
"1  c gray32",
"2  c #535353",
"3  c gray33",
"4  c #555555",
"5  c #565656",
"6  c gray34",
"7  c #585858",
"8  c gray35",
"9  c #5A5A5A",
"0  c gray36",
"q  c #5D5D5D",
"w  c gray37",
"e  c #5F5F5F",
"r  c #606060",
"t  c gray38",
"y  c #626262",
"u  c gray39",
"i  c #646464",
"p  c #656565",
"a  c gray40",
"s  c #676767",
"d  c #686868",
"f  c DimGray",
"g  c #6A6A6A",
"h  c gray42",
"j  c #6C6C6C",
"k  c gray43",
"l  c gray44",
"z  c #717171",
"x  c #727272",
"c  c gray45",
"v  c #747474",
"b  c gray46",
"n  c #767676",
"m  c #777777",
"M  c gray47",
"N  c #797979",
"B  c gray48",
"V  c #7B7B7B",
"C  c #7C7C7C",
"Z  c gray49",
"A  c #7E7E7E",
"S  c #7F7F7F",
"D  c #808080",
"F  c #818181",
"G  c gray51",
"H  c #838383",
"J  c #848484",
"K  c gray52",
"L  c #868686",
"P  c gray53",
"I  c #888888",
"U  c #898989",
"Y  c gray54",
"T  c #8B8B8B",
"R  c gray55",
"E  c #8D8D8D",
"W  c #8E8E8E",
"Q  c gray56",
"!  c #909090",
"~  c gray57",
"^  c #929292",
"/  c #939393",
"(  c gray58",
")  c #959595",
"_  c #979797",
"`  c #989898",
"'  c gray60",
"]  c #9A9A9A",
"[  c #9B9B9B",
"{  c gray61",
"}  c #9D9D9D",
"|  c gray62",
" . c #9F9F9F",
".. c #A0A0A0",
"X. c gray63",
"o. c #A2A2A2",
"O. c gray64",
"+. c #A4A4A4",
"@. c #A5A5A5",
"#. c gray66",
"$. c #A9A9A9",
"%. c #AAAAAA",
"&. c gray67",
"*. c #ACACAC",
"=. c gray68",
"-. c #AEAEAE",
";. c #AFAFAF",
":. c gray69",
">. c #B1B1B1",
",. c #B2B2B2",
"<. c #B6B6B6",
"1. c #B7B7B7",
"2. c #B9B9B9",
"3. c #BCBCBC",
"4. c gray74",
"5. c gray",
"6. c gray75",
"7. c #C1C1C1",
"8. c gray76",
"9. c #C3C3C3",
"0. c gray77",
"q. c #C5C5C5",
"w. c #C6C6C6",
"e. c gray78",
"r. c #C8C8C8",
"t. c gray79",
"y. c #CACACA",
"u. c gray80",
"i. c #CDCDCD",
"p. c gray81",
"a. c #D0D0D0",
"s. c #D2D2D2",
"d. c LightGray",
"f. c gray83",
"g. c #D5D5D5",
"h. c gray84",
"j. c #D7D7D7",
"k. c #D8D8D8",
"l. c gray85",
"z. c #DADADA",
"x. c gray86",
"c. c gainsboro",
"v. c #DDDDDD",
"b. c gray87",
"n. c #DFDFDF",
"m. c #E2E2E2",
"M. c #E4E4E4",
"N. c gray91",
"B. c #E9E9E9",
"V. c #EAEAEA",
"C. c gray92",
"Z. c #ECECEC",
"A. c gray93",
"S. c #EEEEEE",
"D. c #EFEFEF",
"F. c gray94",
"G. c #F1F1F1",
"H. c gray95",
"J. c #F3F3F3",
"K. c #F4F4F4",
"L. c gray96",
"P. c #F6F6F6",
"I. c gray97",
"U. c #F8F8F8",
"Y. c #F9F9F9",
"T. c gray98",
"R. c #FBFBFB",
"E. c gray99",
"W. c #FDFDFD",
"Q. c None",
/* pixels */
"Q.Q.Q.Q.Q.Q.Q.Q.Q.Q.Q.Q.Q.Q.Q.Q.Q.Q.Q.Q.Q.Q.Q.Q.Q.Q.Q.Q.Q.Q.Q.Q.Q.Q.Q.Q.Q.Q.Q.Q.Q.Q.Q.Q.Q.Q.Q.Q.",
"Q.Q.Q.Q.Q.Q.Q.Q.Q.Q.Q.Q.Q.Q.Q.Q.Q.Q.Q.Q.Q.Q.Q.Q.Q.Q.Q.Q.Q.Q.Q.Q.Q.Q.Q.Q.Q.Q.Q.Q.Q.Q.Q.Q.Q.Q.Q.Q.",
"Q.Q.Q.Q.Q.Q.Q.Q.Q.Q.Q.Q.Q.Q.Q.Q.Q.Q.Q.Q.Q.Q.Q.X.{ Q.Q.Q.Q.Q.Q.Q.Q.Q.Q.Q.Q.Q.Q.Q.Q.Q.Q.Q.Q.Q.Q.Q.",
"Q.Q.Q.Q.Q.Q.Q.Q.Q.Q.Q.Q.Q.Q.Q.Q.Q.Q.Q.Q.Q.Q.( *.*.^ Q.Q.Q.Q.Q.Q.Q.Q.Q.Q.Q.Q.Q.Q.Q.Q.Q.Q.Q.Q.Q.Q.",
"Q.Q.Q.Q.Q.Q.Q.Q.Q.Q.Q.Q.Q.Q.Q.Q.Q.Q.Q.Q.Q.Q | / ( | Q Q.Q.Q.Q.Q.Q.Q.Q.Q.Q.Q.Q.Q.Q.Q.Q.Q.Q.Q.Q.Q.",
"Q.Q.Q.Q.Q.Q.Q.Q.Q.Q.Q.Q.Q.Q.Q.Q.Q.Q.Q.Q.Q } U l l U } Q Q.Q.Q.Q.Q.Q.Q.Q.Q.Q.Q.Q.Q.Q.Q.Q.Q.Q.Q.Q.",
"Q.Q.Q.Q.Q.Q.Q.Q.Q.Q.Q.Q.Q.Q.Q.Q.Q.Q.Q.Q } I f 4 3 f I } Q Q.Q.Q.Q.Q.Q.Q.Q.Q.Q.Q.Q.Q.Q.Q.Q.Q.Q.Q.",
"Q.Q.Q.Q.Q.Q.Q.Q.Q.Q.Q.Q.Q.Q.Q.Q.Q.Q.Q } U f 2 7 1 2 f U } Q Q.Q.Q.Q.Q.Q.Q.Q.Q.Q.Q.Q.Q.Q.Q.Q.Q.Q.",
"Q.Q.Q.Q.Q.Q.Q.Q.Q.Q.Q.Q.Q.Q.Q.Q.Q.Q } U g 3 4 # @ , 3 g U } ! ..%.&.&.&.&.&.&.&.&.&.Q.Q.Q.Q.Q.Q.",
"Q.Q.Q.Q.Q.Q.Q.Q.Q.Q.Q.Q.Q.Q.Q.Q.Q } I f 3 3 & N N $ , 3 f I } W ~ ' ] [ ] ] [ ] ] ] Q.Q.Q.Q.Q.Q.",
"Q.Q.Q.Q.Q.Q.Q.Q.Q.Q.Q.Q.Q.Q.Q.Q { U f 3 4 & N Q Q N % < 3 f U { E K T Q ^ ^ ^ ^ ^ ^ Q.Q.Q.Q.Q.Q.",
"Q.Q.Q.Q.Q.Q.Q.Q.Q.Q.Q.Q.Q.Q.W } U g 3 4 $ B / +.+./ B # < 2 g U } P q z I Q W E I J Q.Q.Q.Q.Q.Q.",
"Q.Q.Q.Q.Q.Q.Q.Q.Q.Q.Q.Q.Q.Q } I f 3 4 & B ) :.g.g.:.) B % 1 3 f I } U C ;.t.i.y.5.Q.Q.Q.Q.Q.Q.Q.",
"Q.Q.Q.Q.Q.Q.Q.Q.Q.Q.Q.Q.Q } U f 3 4 & N ( :.z.K.K.z.:.( N & 2 3 f U } Y Q 8.f.f.r.Q.Q.Q.Q.Q.Q.Q.",
"Q.Q.Q.Q.Q.Q.Q.Q.Q.Q.Q.W } U g 3 4 $ B ( -.z.L.E.E.L.z.-.( B $ 3 3 g U } T ] e.d.r.Q.Q.Q.Q.Q.Q.Q.",
"Q.Q.Q.Q.Q.Q.Q.Q.Q.Q.Q } P f 3 3 & B ) :.z.P.E.W.W.E.P.z.:.) B & 3 3 f P } E  .r.w.Q.Q.Q.Q.Q.Q.Q.",
"Q.Q.Q.Q.Q.Q.Q.Q.Q.Q { U f 4 4 & N ( :.z.L.E.W.W.W.W.E.L.z.:.( N * 4 4 f U { W +.4.Q.Q.Q.Q.Q.Q.Q.",
"Q.Q.Q.Q.Q.Q.Q.Q.W } U g 3 4 $ B ( -.z.L.E.W.W.W.W.E.W.E.L.z.-.( B % 4 3 g U } W | Q.Q.Q.Q.Q.Q.Q.",
"Q.Q.Q.Q.Q.Q.Q.Q } P f 3 4 & B ) :.z.P.E.W.W.W.W.W.W.W.W.E.P.z.:.) B * 4 3 f P } E Q.Q.Q.Q.Q.Q.Q.",
"Q.Q.Q.Q.Q.Q.Q { U f 3 4 & N ( :.z.L.E.W.W.W.W.W.W.W.W.W.W.E.L.z.:.( N * 4 4 f U { Q Q.Q.Q.Q.Q.Q.",
"Q.Q.Q.Q.Q.Q } U g 3 4 $ B ( -.z.L.E.W.W.W.W.W.W.W.E.W.W.E.W.E.L.z.-.( B % 4 3 g U } Q Q.Q.Q.Q.Q.",
"Q.Q.Q.Q.Q } I f 3 3 & B ( :.z.L.R.E.E.E.E.E.E.E.E.E.E.E.E.E.E.E.L.z.:.( B * 4 3 f P } Q Q.Q.Q.Q.",
"Q.Q.Q.Q { U f 3 4 & N / ;.l.K.R.E.E.E.E.E.E.E.E.E.E.E.E.E.E.E.E.R.K.l.;./ N * 5 3 f U { Q Q.Q.Q.",
"Q.Q.K ] I h 3 3 $ B / =.l.K.R.R.E.R.R.E.R.R.E.R.E.E.E.E.E.E.E.E.E.R.K.l.=./ B % 4 3 h I ] K Q.Q.",
"Q.k V S f 3 5 % B / ;.l.K.R.R.R.R.H.s.s.s.s.s.s.s.s.s.s.s.s.j.U.R.R.R.K.l.;./ N % 6 3 f S V k Q.",
"Q.h h i 3 e % e / -.k.J.T.R.R.R.R.d.O = - ; ; = = ; ; ; = % 2 S.R.R.T.T.J.k.-.^ 3 : 9 2 i h h Q.",
"Q.g i 1 ; > + g *.k.H.Y.T.T.T.T.T.j.; @.y.s.g. .Y g.f.a.{ 9 p D.T.T.T.T.Y.H.k.*.0 @ * & 1 i g Q.",
"Q.Q.Q.Q.Q.o X H j.H.Y.Y.Y.Y.Y.Y.Y.z.< *.f.n.M.>.} M.m.x.+.y k F.Y.Y.Y.Y.Y.Y.H.h.k   . Q.Q.Q.Q.Q.",
"Q.Q.Q.Q.Q.Q.Q.2.F.U.U.U.U.U.U.U.U.c.5 { 7.p.g.>.O.g.s.r.] p c F.U.U.U.U.U.U.U.S.>.Q.Q.Q.Q.Q.Q.Q.",
"Q.Q.Q.Q.Q.Q.Q.w.K.I.I.I.I.I.I.I.I.v.8 R &.3.9.&...9.5.,.E s m D.I.I.I.I.I.I.I.G.6.Q.Q.Q.Q.Q.Q.Q.",
"Q.Q.Q.Q.Q.Q.Q.u.K.P.P.P.P.P.P.P.P.b.9 A ` %.,.o.[ >.*. .G s V D.P.P.P.P.P.P.P.H.q.Q.Q.Q.Q.Q.Q.Q.",
"Q.Q.Q.Q.Q.Q.Q.k.K.L.L.K.L.K.L.L.L.b.q n E | @.{ _ O.{ E m s Z S.K.L.K.K.L.L.L.J.d.Q.Q.Q.Q.Q.Q.Q.",
"Q.Q.Q.Q.Q.Q.Q.b.J.J.J.J.J.J.J.J.J.n.w z K ( ` ^ W W T H v s S S.J.J.J.J.J.J.J.J.x.Q.Q.Q.Q.Q.Q.Q.",
"Q.Q.Q.Q.Q.Q.Q.b.G.G.G.G.G.G.G.G.G.n.w g n D L P P P K A x p F A.G.G.G.G.G.G.G.G.c.Q.Q.Q.Q.Q.Q.Q.",
"Q.Q.Q.Q.Q.Q.Q.b.F.F.F.F.F.F.F.F.F.n.e p k b M N N N M v j i G Z.F.F.F.F.F.F.F.F.x.Q.Q.Q.Q.Q.Q.Q.",
"Q.Q.Q.Q.Q.Q.Q.v.S.S.S.S.S.S.S.S.S.b.e y s f g g g g g d a u G C.S.S.S.S.S.S.S.S.x.Q.Q.Q.Q.Q.Q.Q.",
"Q.Q.Q.Q.Q.Q.Q.c.A.A.A.A.A.A.A.A.A.c.q r t t y y y y y t t t D V.A.A.A.A.A.A.A.A.x.Q.Q.Q.Q.Q.Q.Q.",
"Q.Q.Q.Q.Q.Q.Q.c.Z.Z.Z.Z.Z.Z.Z.Z.Z.c.<.4.4.4.4.4.4.4.4.4.4.4.1.B.Z.Z.Z.Z.Z.Z.Z.Z.z.Q.Q.Q.Q.Q.Q.Q.",
"Q.Q.Q.Q.Q.Q.Q.c.C.C.C.C.C.C.C.C.C.Z.C.Z.C.C.Z.C.C.Z.C.C.Z.C.C.Z.C.C.C.C.C.C.C.C.z.Q.Q.Q.Q.Q.Q.Q.",
"Q.Q.Q.Q.Q.Q.Q.x.V.V.V.V.V.V.V.V.V.V.V.V.V.V.V.V.V.V.V.V.V.V.V.V.V.V.V.V.V.V.V.V.z.Q.Q.Q.Q.Q.Q.Q.",
"Q.Q.Q.Q.Q.Q.Q.z.B.B.B.B.B.B.B.B.B.B.B.B.B.B.B.B.B.B.B.B.B.B.B.B.B.B.B.B.B.B.B.B.l.Q.Q.Q.Q.Q.Q.Q.",
"Q.Q.Q.Q.Q.Q.Q.j.B.B.B.B.B.B.B.B.B.B.B.B.B.B.B.B.N.N.N.N.N.N.N.N.N.N.N.N.N.N.N.N.d.Q.Q.Q.Q.Q.Q.Q.",
"Q.Q.Q.Q.Q.Q.Q.a.N.N.N.N.N.N.N.N.N.N.N.N.N.N.N.N.N.N.N.N.N.N.N.N.N.N.N.N.N.N.N.N.0.Q.Q.Q.Q.Q.Q.Q.",
"Q.Q.Q.Q.Q.Q.Q.y.N.N.N.N.N.N.N.N.N.N.N.N.N.N.N.N.N.N.N.N.N.N.N.N.N.N.N.N.N.N.N.N.<.Q.Q.Q.Q.Q.Q.Q.",
"Q.Q.Q.Q.Q.Q.Q./ =.=.*.*.&.&.&.%.%.%.$.$.$.$.$.$.#.#.#.#.#.#.#.#.#.#.#.#.#.#.#.$.B Q.Q.Q.Q.Q.Q.Q.",
"Q.Q.Q.Q.Q.Q.Q.Q.Q.Q.Q.Q.Q.Q.Q.Q.Q.Q.Q.Q.Q.Q.Q.Q.Q.Q.Q.Q.Q.Q.Q.Q.Q.Q.Q.Q.Q.Q.Q.Q.Q.Q.Q.Q.Q.Q.Q.Q.",
"Q.Q.Q.Q.Q.Q.Q.Q.Q.Q.Q.Q.Q.Q.Q.Q.Q.Q.Q.Q.Q.Q.Q.Q.Q.Q.Q.Q.Q.Q.Q.Q.Q.Q.Q.Q.Q.Q.Q.Q.Q.Q.Q.Q.Q.Q.Q.Q.",
"Q.Q.Q.Q.Q.Q.Q.Q.Q.Q.Q.Q.Q.Q.Q.Q.Q.Q.Q.Q.Q.Q.Q.Q.Q.Q.Q.Q.Q.Q.Q.Q.Q.Q.Q.Q.Q.Q.Q.Q.Q.Q.Q.Q.Q.Q.Q.Q."
};
