/* XPM */
static const char *home_xpm[] = {
/* columns rows colors chars-per-pixel */
"48 48 142 2",
"   c #2D2F31",
".  c #2F3233",
"X  c #313436",
"o  c #3A3F42",
"O  c #3E4144",
"+  c #3F4648",
"@  c #1C4365",
"#  c #355C7C",
"$  c #414546",
"%  c #434748",
"&  c #44494C",
"*  c #4C5355",
"=  c #4F5658",
"-  c #545555",
";  c #505759",
":  c #525A5C",
">  c #5C5E5E",
",  c #5C6062",
"<  c #646565",
"1  c #6A6B6B",
"2  c #6E6F70",
"3  c #6F7171",
"4  c #707171",
"5  c #7A7A7A",
"6  c #1B4E82",
"7  c #1E5085",
"8  c #215286",
"9  c #2D588E",
"0  c #315D95",
"q  c #376697",
"w  c #35629A",
"e  c #38659F",
"r  c #3866A0",
"t  c #2464B9",
"y  c #2E69BA",
"u  c #406E98",
"i  c #4A76A5",
"p  c #4F7CAB",
"a  c #2D6AC9",
"s  c #306AC1",
"d  c #3367CC",
"f  c #316DCE",
"g  c #356DD3",
"h  c #3472D4",
"j  c #3378D7",
"k  c #3E79D2",
"l  c #457DD3",
"z  c #7F8080",
"x  c #5382B2",
"c  c #5686B8",
"v  c #598ABD",
"b  c #2E84DB",
"n  c #2B8DDF",
"m  c #3186DC",
"M  c #3288DC",
"N  c #269AE4",
"B  c #1DB5EE",
"V  c #23A2E7",
"C  c #21A7E8",
"Z  c #20A9EA",
"A  c #32AAE7",
"S  c #26B8EE",
"D  c #2BBDEF",
"F  c #3DB1E9",
"G  c #35BBED",
"H  c #3BBEEE",
"J  c #5E94CD",
"K  c #5085D5",
"L  c #4493DF",
"P  c #559ADF",
"I  c #6492D7",
"U  c #6DA4DF",
"Y  c #7BA3D0",
"T  c #7CA8D3",
"R  c #7CA2D9",
"E  c #4E9DE0",
"W  c #4DB9EA",
"Q  c #54BBEA",
"!  c #61A7E2",
"~  c #64AEE1",
"^  c #35C0EF",
"/  c #43C4EE",
"(  c #4DC5EE",
")  c #57C9EE",
"_  c #5CC9EE",
"`  c #63C2EA",
"'  c #65CEEF",
"]  c #6EC8EB",
"[  c #79C6E9",
"{  c #848586",
"}  c #878989",
"|  c #8A8B8B",
" . c #8C8F90",
".. c #8F9090",
"X. c #939494",
"o. c #9C9D9D",
"O. c #9FA0A0",
"+. c #A2A3A3",
"@. c #ABACAC",
"#. c #AFB0B0",
"$. c #B0B1B1",
"%. c #BBBDBD",
"&. c #8AACD0",
"*. c #83ABDC",
"=. c #92B1DA",
"-. c #80B7E4",
";. c #85BFE4",
":. c #9ABEE0",
">. c #BFC0C0",
",. c #BBCFDE",
"<. c #86CFEB",
"1. c #9FC4E9",
"2. c #82D5ED",
"3. c #89D8EE",
"4. c #A4CAE6",
"5. c #A4D5E9",
"6. c #AEDBEA",
"7. c #AEE0EC",
"8. c #B3E2EC",
"9. c #C4C6C6",
"0. c #C7C9C9",
"q. c #CBCCCC",
"w. c #CFD4D8",
"e. c #D4D5D5",
"r. c #D6D8DB",
"t. c #DADBDB",
"y. c #C3D6E0",
"u. c #C6D9E3",
"i. c #C8DAE2",
"p. c #D3DDE4",
"a. c #D3DFE8",
"s. c #CBE1E8",
"d. c #D5E2EA",
"f. c #D5E9EA",
"g. c #D8EAEB",
"h. c #E7EAEE",
"j. c #EAEBEB",
"k. c #E9EDF1",
"l. c #EEF0F3",
"z. c #F4F4F4",
"x. c #FBFBFB",
"c. c None",
/* pixels */
"c.c.c.c.c.c.c.c.c.c.c.c.c.c.c.c.c.c.c.c.c.c.c.c.c.c.c.c.c.c.c.c.c.c.c.c.c.c.c.c.c.c.c.c.c.c.c.c.",
"c.c.c.c.c.c.c.c.c.c.c.c.c.c.c.c.c.c.c.c.c.c.c.c.c.c.c.c.c.c.c.c.c.c.c.c.c.c.c.c.c.c.c.c.c.c.c.c.",
"c.c.c.c.c.c.c.c.c.c.c.c.c.c.c.c.c.c.c.c.c.c.c.+.o.c.c.c.c.c.c.c.c.c.c.c.c.c.c.c.c.c.c.c.c.c.c.c.",
"c.c.c.c.c.c.c.c.c.c.c.c.c.c.c.c.c.c.c.c.c.c.X.@.@.X.c.c.c.c.c.c.c.c.c.c.c.c.c.c.c.c.c.c.c.c.c.c.",
"c.c.c.c.c.c.c.c.c.c.c.c.c.c.c.c.c.c.c.c.c...o.X.X.o...c.c.c.c.c.c.c.c.c.c.c.c.c.c.c.c.c.c.c.c.c.",
"c.c.c.c.c.c.c.c.c.c.c.c.c.c.c.c.c.c.c.c...o.| 3 4 | o...c.c.c.c.c.c.c.c.c.c.c.c.c.c.c.c.c.c.c.c.",
"c.c.c.c.c.c.c.c.c.c.c.c.c.c.c.c.c.c.c...o.} 1 - - 1 } o...c.c.c.c.c.c.c.c.c.c.c.c.c.c.c.c.c.c.c.",
"c.c.c.c.c.c.c.c.c.c.c.c.c.c.c.c.c.c...o.} 1 - : = - 1 } o...c.c.c.c.c.c.c.c.c.c.c.c.c.c.c.c.c.c.",
"c.c.c.c.c.c.c.c.c.c.c.c.c.c.c.c.c...o.} 1 - ; $ O * - 1 } o.X.+.@.@.@.@.@.@.@.@.@.@.c.c.c.c.c.c.",
"c.c.c.c.c.c.c.c.c.c.c.c.c.c.c.c...o.} 1 - ; % 5 5 $ * - 1 } o.| X.o.o.o.o.o.o.o.o.o.c.c.c.c.c.c.",
"c.c.c.c.c.c.c.c.c.c.c.c.c.c.c...o.| 1 - ; % 5 | | 5 $ * - 1 | o.| { | ..X.X.X.X.X.X.c.c.c.c.c.c.",
"c.c.c.c.c.c.c.c.c.c.c.c.c.c.| o.| 1 - ; $ 5 X.+.+.X.5 $ * - 1 | o.} > 3 } .. .| } { c.c.c.c.c.c.",
"c.c.c.c.c.c.c.c.c.c.c.c.c...o.} 1 - ; % 5 X.$.e.e.$.X.5 $ = - 1 } o.| 5 #.0.q.q.%.c.c.c.c.c.c.c.",
"c.c.c.c.c.c.c.c.c.c.c.c...o.} 1 - ; % 5 X.$.t.z.z.t.$.X.5 % = - 1 } o.| ..9.e.e.0.c.c.c.c.c.c.c.",
"c.c.c.c.c.c.c.c.c.c.c.| o.} 1 - ; $ 5 X.@.t.z.x.x.z.t.@.X.5 $ = - 1 } o.| o.0.e.0.c.c.c.c.c.c.c.",
"c.c.c.c.c.c.c.c.c.c...o.} 1 - ; % 5 X.$.t.z.x.x.x.x.z.t.$.X.5 % = - 1 } o.| O.0.9.c.c.c.c.c.c.c.",
"c.c.c.c.c.c.c.c.c...o.| 1 - ; % 5 X.$.t.z.x.x.x.x.x.x.z.t.$.X.5 % ; - 1 | o.| +.%.c.c.c.c.c.c.c.",
"c.c.c.c.c.c.c.c.| o.} 1 - ; $ 5 X.@.t.z.x.x.x.x.x.x.x.x.z.t.@.X.5 $ ; - 1 } o.| o.c.c.c.c.c.c.c.",
"c.c.c.c.c.c.c...o.} 1 - ; % 5 X.$.t.z.x.x.x.x.x.x.x.x.x.x.z.t.$.X.5 % ; - 1 } o.| c.c.c.c.c.c.c.",
"c.c.c.c.c.c...o.| 1 - ; % 5 X.$.t.z.x.x.x.x.x.x.x.x.x.x.x.x.z.t.$.X.5 % ; - 1 | o...c.c.c.c.c.c.",
"c.c.c.c.c...o.} 1 - ; $ 5 X.@.t.z.x.x.x.x.x.x.x.x.x.x.x.x.x.x.z.t.@.X.5 $ ; - 1 } o...c.c.c.c.c.",
"c.c.c.c...o.} 1 - ; % 5 X.$.t.z.x.x.x.x.x.x.x.x.x.x.x.x.x.x.x.x.z.t.$.X.5 % ; - 1 } o...c.c.c.c.",
"c.c.c...o.| 1 - ; % 5 X.@.t.z.x.x.x.x.x.x.x.x.x.x.x.x.x.x.x.x.x.x.z.t.@.X.5 % ; - 1 | o...c.c.c.",
"c.c.{ o.} 1 - ; $ 5 X.@.t.z.x.x.x.x.x.x.x.x.x.x.x.x.x.x.x.x.x.x.x.x.z.t.@.X.5 $ ; - 1 } o.{ c.c.",
"c.1 5 z 1 - ; $ 5 X.@.t.z.x.x.x.x.z.w.w.w.w.w.w.w.w.w.w.w.w.r.x.x.x.x.z.t.@.X.5 $ : - 1 z 5 1 c.",
"c.1 1 < - , + , X.@.r.z.x.x.x.x.x.w.@ 7 8 8 8 7 7 8 8 8 7 6 # k.x.x.x.x.z.r.@.X.- * : - < 1 1 c.",
"c.1 < - & * o 1 @.r.z.x.x.x.x.x.x.p.8 &.,.y.i.T J i.i.y.Y t u l.x.x.x.x.x.z.r.@.> O & % - < 1 c.",
"c.c.c.c.c.X X { r.z.x.x.x.x.x.x.x.p.9 =.u.d.f.;.~ g.f.s.*.a i l.x.x.x.x.x.x.z.e.2   . c.c.c.c.c.",
"c.c.c.c.c.c.c.%.z.x.x.x.x.x.x.x.x.a.0 R 4.6.8.] Q 8.7.5.U f p l.x.x.x.x.x.x.x.j.$.c.c.c.c.c.c.c.",
"c.c.c.c.c.c.c.0.z.z.z.z.z.z.z.z.z.d.w I -.<.3.) / 3.2.[ P f x l.z.z.z.z.z.z.z.z.>.c.c.c.c.c.c.c.",
"c.c.c.c.c.c.c.q.z.z.z.z.z.z.z.z.z.d.w K ! ` ' / ^ ' _ Q L f x l.z.z.z.z.z.z.z.z.9.c.c.c.c.c.c.c.",
"c.c.c.c.c.c.c.r.z.z.z.z.z.z.z.z.z.d.e l E W ( ^ D / H A M f c k.z.z.z.z.z.z.z.z.e.c.c.c.c.c.c.c.",
"c.c.c.c.c.c.c.t.z.z.z.z.z.z.z.z.z.d.e k L F G S B B B V b f v k.z.z.z.z.z.z.z.z.t.c.c.c.c.c.c.c.",
"c.c.c.c.c.c.c.t.z.z.z.z.z.z.z.z.z.d.r h m N C Z Z Z C N b f v k.z.z.z.z.z.z.z.z.t.c.c.c.c.c.c.c.",
"c.c.c.c.c.c.c.t.z.z.z.z.z.z.z.z.z.d.r f j b n n n n n b j f v k.z.z.z.z.z.z.z.z.t.c.c.c.c.c.c.c.",
"c.c.c.c.c.c.c.t.j.j.j.j.j.j.j.j.j.d.e d g h h h h h h g g d v h.j.j.j.j.j.j.j.j.t.c.c.c.c.c.c.c.",
"c.c.c.c.c.c.c.t.j.j.j.j.j.j.j.j.j.a.q y s s s s s s s s s y v h.j.j.j.j.j.j.j.j.t.c.c.c.c.c.c.c.",
"c.c.c.c.c.c.c.t.j.j.j.j.j.j.j.j.j.a.:.1.1.1.1.1.1.1.1.1.1.1.:.h.j.j.j.j.j.j.j.j.t.c.c.c.c.c.c.c.",
"c.c.c.c.c.c.c.t.j.j.j.j.j.j.j.j.j.j.k.k.k.k.k.k.k.k.k.k.k.k.k.j.j.j.j.j.j.j.j.j.t.c.c.c.c.c.c.c.",
"c.c.c.c.c.c.c.t.j.j.j.j.j.j.j.j.j.j.j.j.j.j.j.j.j.j.j.j.j.j.j.j.j.j.j.j.j.j.j.j.t.c.c.c.c.c.c.c.",
"c.c.c.c.c.c.c.t.j.j.j.j.j.j.j.j.j.j.j.j.j.j.j.j.j.j.j.j.j.j.j.j.j.j.j.j.j.j.j.j.t.c.c.c.c.c.c.c.",
"c.c.c.c.c.c.c.r.j.j.j.j.j.j.j.j.j.j.j.j.j.j.j.j.j.j.j.j.j.j.j.j.j.j.j.j.j.j.j.j.e.c.c.c.c.c.c.c.",
"c.c.c.c.c.c.c.e.j.j.j.j.j.j.j.j.j.j.j.j.j.j.j.j.j.j.j.j.j.j.j.j.j.j.j.j.j.j.j.j.9.c.c.c.c.c.c.c.",
"c.c.c.c.c.c.c.q.j.j.j.j.j.j.j.j.j.j.j.j.j.j.j.j.j.j.j.j.j.j.j.j.j.j.j.j.j.j.j.j.%.c.c.c.c.c.c.c.",
"c.c.c.c.c.c.c.X.@.@.@.@.@.@.@.@.@.@.@.@.@.@.@.@.@.@.@.@.@.@.@.@.@.@.@.@.@.@.@.@.5 c.c.c.c.c.c.c.",
"c.c.c.c.c.c.c.c.c.c.c.c.c.c.c.c.c.c.c.c.c.c.c.c.c.c.c.c.c.c.c.c.c.c.c.c.c.c.c.c.c.c.c.c.c.c.c.c.",
"c.c.c.c.c.c.c.c.c.c.c.c.c.c.c.c.c.c.c.c.c.c.c.c.c.c.c.c.c.c.c.c.c.c.c.c.c.c.c.c.c.c.c.c.c.c.c.c.",
"c.c.c.c.c.c.c.c.c.c.c.c.c.c.c.c.c.c.c.c.c.c.c.c.c.c.c.c.c.c.c.c.c.c.c.c.c.c.c.c.c.c.c.c.c.c.c.c."
};
