/* XPM */
static const char *start_xpm[] = {
/* columns rows colors chars-per-pixel */
"48 48 256 2",
"   c #542700",
".  c #305810",
"X  c #3C6C0A",
"o  c #3B630A",
"O  c #3E710B",
"+  c #3D6F39",
"@  c #3A6C21",
"#  c #4A5306",
"$  c #41750C",
"%  c #44780E",
"&  c #4A7C12",
"*  c #457916",
"=  c #40713D",
"-  c #417428",
";  c #7A0B42",
":  c #542B56",
">  c #54315E",
",  c #4B2E58",
"<  c #65285B",
"1  c #563461",
"2  c #5B3464",
"3  c #5F3868",
"4  c #633B6B",
"5  c #663668",
"6  c #75376B",
"7  c #2F5C40",
"8  c #1D4374",
"9  c #3A6775",
"0  c #694271",
"q  c #6C4E74",
"w  c #754E7B",
"e  c #79547D",
"r  c #73557A",
"t  c #65476E",
"y  c #457265",
"u  c #830105",
"i  c #9F1E04",
"p  c #960609",
"a  c #A40303",
"s  c #B73B1D",
"d  c #990C32",
"f  c #BD2F2F",
"g  c #BA3837",
"h  c #C12E2E",
"j  c #C13030",
"k  c #C83D3D",
"l  c #C63A3A",
"z  c #B55100",
"x  c #BD5400",
"c  c #B45E01",
"v  c #A74700",
"b  c #996104",
"n  c #B57418",
"m  c #BC690D",
"M  c #BB4534",
"N  c #847E22",
"B  c #AD7C21",
"V  c #C35301",
"C  c #C65800",
"Z  c #CC5C01",
"A  c #CA580B",
"S  c #D15F01",
"D  c #C5541D",
"F  c #CB6307",
"G  c #D36305",
"H  c #D6690E",
"J  c #D96807",
"K  c #DD751B",
"L  c #E06B03",
"P  c #EA770A",
"I  c #F07D0E",
"U  c #E77C19",
"Y  c #C75C33",
"T  c #8C0D4C",
"R  c #900D4F",
"E  c #950E52",
"W  c #9B0E55",
"Q  c #9C1256",
"!  c #9F1158",
"~  c #8D1755",
"^  c #A80E5B",
"/  c #A2125B",
"(  c #A4185A",
")  c #B23A56",
"_  c #AA2B5C",
"`  c #BB0B63",
"'  c #B61866",
"]  c #A91E63",
"[  c #89346C",
"{  c #833F71",
"}  c #9F3771",
"|  c #B8286D",
" . c #B23B60",
".. c #BE2A71",
"X. c #AB3871",
"o. c #BC3674",
"O. c #AC2366",
"+. c #C5146B",
"@. c #C7196D",
"#. c #C81A6F",
"$. c #C91D71",
"%. c #C20C66",
"&. c #CB2475",
"*. c #CE2C79",
"=. c #C42270",
"-. c #D02E7C",
";. c #CD357D",
":. c #C43778",
">. c #D1327E",
",. c #BC4A4E",
"<. c #BB4D60",
"1. c #AF447B",
"2. c #CC4646",
"3. c #CC4A4A",
"4. c #C64D4D",
"5. c #D04F4F",
"6. c #C15656",
"7. c #D25252",
"8. c #D65C5C",
"9. c #D85E5E",
"0. c #C2544C",
"q. c #C35F69",
"w. c #CB6362",
"e. c #C56364",
"r. c #DD6A6A",
"t. c #D76666",
"y. c #D87171",
"u. c #E17373",
"i. c #E47878",
"p. c #4F8019",
"a. c #4F8116",
"s. c #538419",
"d. c #5A881B",
"f. c #5C8C23",
"g. c #5A8722",
"h. c #6B8F2E",
"j. c #68942A",
"k. c #709B32",
"l. c #79A136",
"z. c #7BA541",
"x. c #809D3F",
"c. c #92993F",
"v. c #95882B",
"b. c #A2882D",
"n. c #81A739",
"m. c #85A93D",
"M. c #80A537",
"N. c #F5800D",
"B. c #F58414",
"V. c #F6891C",
"C. c #F68718",
"Z. c #E68123",
"A. c #F68D23",
"S. c #F7912A",
"D. c #F8942D",
"F. c #F79027",
"G. c #E78931",
"H. c #EF9338",
"J. c #F89631",
"K. c #F89835",
"L. c #F69839",
"P. c #F99C3B",
"I. c #F19133",
"U. c #86AB41",
"Y. c #8AAE44",
"T. c #8BAB4C",
"R. c #88A446",
"E. c #8DB047",
"W. c #8DB14A",
"Q. c #92B54D",
"!. c #93B452",
"~. c #97B952",
"^. c #99BB56",
"/. c #9DBE5A",
"(. c #96BA58",
"). c #EF9C4A",
"_. c #F99F40",
"`. c #FAA144",
"'. c #FAA54B",
"]. c #F6A047",
"[. c #FBAA53",
"{. c #FBAF5B",
"}. c #F4A451",
"|. c #FCB15E",
" X c #FCB463",
".X c #9FC05C",
"XX c #A1C15E",
"oX c #9DC060",
"OX c #A4C462",
"+X c #A8C867",
"@X c #ACCB6B",
"#X c #B0CF71",
"$X c #1F4985",
"%X c #234A86",
"&X c #244D89",
"*X c #294D87",
"=X c #3A669E",
"-X c #356184",
";X c #3969A6",
":X c #3765A0",
">X c #7C5681",
",X c #7D5B82",
"<X c #466F8D",
"1X c #51799E",
"2X c #4E7786",
"3X c #406BA2",
"4X c #4372AC",
"5X c #4B76A8",
"6X c #4E7BB2",
"7X c #507CB4",
"8X c #547CAC",
"9X c #D33780",
"0X c #D53B83",
"qX c #825D85",
"wX c #826285",
"eX c #86618A",
"rX c #8A658D",
"tX c #8E6991",
"yX c #926D94",
"uX c #977198",
"iX c #9A759B",
"pX c #9E799E",
"aX c #967097",
"sX c #A27DA2",
"dX c #CA4180",
"fX c #D74186",
"gX c #D94489",
"hX c #DB4B8D",
"jX c #D74889",
"kX c #D4528C",
"lX c #DD4F90",
"zX c #DF5391",
"xX c #DC5B93",
"cX c #E15A96",
"vX c #E25C97",
"bX c #E5629B",
"nX c #E8699F",
"mX c #E96CA1",
"MX c #5A86BA",
"NX c #5881B3",
"BX c #638DBD",
"VX c #668FC0",
"CX c #6690C1",
"ZX c #6E96C5",
"AX c #729AC7",
"SX c #729AC8",
"DX c #7DA3CE",
"FX c #A681A5",
"GX c #A882A7",
"HX c #AB85A9",
"JX c #AE88AC",
"KX c #B08AAE",
"LX c #B38EB0",
"PX c #B791B4",
"IX c #84A9D1",
"UX c None",
/* pixels */
"UXUXUXUXUXUXUXUXUXUXUXUXUXUXUXUXUXUXUXUXUXUXUXUXUXUXUXUXUXUXUXUXUXUXUXUXUXUXUXUXUXUXUXUXUXUXUXUX",
"UXUXUXUXUXUXUXUXUXUXUXUXUXUXUXUXUXUXUXUXUXUXUXUXUXUXUXUXUXUXUXUXUXUXUXUXUXUXUXUXUXUXUXUXUXUXUXUX",
"UXUXUXUXUXUXUXUXUXUXUXUXUXUXUXUXUXUXUXUXUXUXUXUXUXUXUXUXUXUXUXUXUXUXUXUXUXUXUXUXUXUXUXUXUXUXUXUX",
"UXUXUXUXUXUXUXUXUXUXUXUXUXUXUXUXUXUXUXUXUXUXUXUXUXUXUXUXUXUXUXUXUXUXUXUXUXUXUXUXUXUXUXUXUXUXUXUX",
"UXUXUXUXUXUXUXUXUXUXUXUXUXUXUXUXUXUXUXUXUXUXUXUXUXUXUXUXUXUXUXUXUXUXUXUXUXUXUXUXUXUXUXUXUXUXUXUX",
"UXUXUXUXUXUXUXUXUXUXUXUXUXUXUXUXUXUXUXUXUXUXUXUX3 2 UXUXUXUXUXUXUXUXUXUXUXUXUXUXUXUXUXUXUXUXUXUX",
"UXUXUXUXUXUXUXUXUXUXUXUXUXUXUXUXUXUXUXUXUXUXUX2 pXpX0 1 UXUXUXUXUXUXUXUXUXUXUXUXUXUXUXUXUXUXUXUX",
"UXUXUXUXUXUXUXUXUXUXUXUXUXUXUXUXUXUXUXUXUXUX, w PXLXJXrX4 > UXUXUXUXUXUXUXUXUXUXUXUXUXUXUXUXUXUX",
"UXUXUXUXUXUXUXUXUXUXUXUXUXUXUXUXUXUXUXUXUXUX3 FXLXKXJXHXsXe 2 UXUXUXUXUXUXUXUXUXUXUXUXUXUXUXUXUX",
"UXUXUXUXUXUXUXUXUXUXUXUXUXUXUXUXUXUXUXUXUX> qXKXJXHXGXFXsXsXyX0 > UXUXUXUXUXUXUXUXUXUXUXUXUXUXUX",
"UXUXUXUXUXUXUXUXUXUXUXUXUXUXT E UXUXUXUXUX4 GXJXHXFXsXsXpXpXiX0 UXUXUXUXUXUXUXUXUXUXUXUXUXUXUXUX",
"UXUXUXUXUXUXUXUXUXUXUXUXUXW | O.UXUXUXUX1 rXHXGXFXsXsXpXiXuXqX2 UXUXUXUXUXUXUXUXUXUXUXUXUXUXUXUX",
"UXUXUXUXUXUXUXUXUXUXUXE ] kXmXxXQ UXUXUX0 GXFXsXsXpXiXiXuXyX4 UXUXUXUXUXUXUXUXUXUXUXUXUXUXUXUXUX",
"UXUXUXUXUXUXUXUXUXR / :.cXbXbXnXo.T UX2 yXsXsXpXpXiXuXyXyXw > UXUXUXUXUXUXUXUXUXUXUXUXUXUXUXUXUX",
"UXUXUXUXUXUXUXUXW | jXzXzXcXvXbXxXQ : w sXsXpXiXrXwXwXqXe > UXUXUXUXUXUXUXUXUXUXUXUXUXUXUXUXUXUX",
"UXUXUXUXUXUXUXE ..fXgXhXhXzXcXvXvXX.5 uXpXiXiXuXwX*X&X&X&X&X&X&X&X&X&X&X&X&X&X&X&X$XUXUXUXUXUXUX",
"UXUXUXUXUXUXUXUX/ 9X0XfXgXhXlXzXkX{ >XpXiXuXyXyX,X*XDXIXIXIXIXIXIXIXIXIXIXIXIXIXDX&XUXUXUXUXUXUX",
"UXUXUXUXUXUXUXUXE | 9X0XfXgXhXhX1.4 uXuXaXyXyXtXe *XDXDXDXDXDXDXDXDXDXDXDXDXDXDXDX&XUXUXUXUXUXUX",
"UXUXUXUXUXUXUXUXUX! *.>.9X0XfXdX6 ,XuXyXyXtXrXrXr *XZXAXAXAXAXAXAXAXAXAXSXSXSXSXZX&XUXUXUXUXUXUX",
"UXUXUXUXUXUXUXUXUXT ' *.>.9X0Xo.[ 4 >XtXrXrXeXeXr &XBXCXCXCXCXCXVXBXBXCXCXCXCXCXBX&XUXUXUXUXUXUX",
"UXUXUXUXUXUXUXUXUXUXW =.*.-.>.;.:.X.6 4 >XeXqXqXq &XMXMXMXMXMXNX1X2X8XMXMXMXMXMXMX&XUXUXUXUXUXUX",
"UXUXUXUXUXUXUXUXUXUXUX^ &.&.*.>.>.;.o.} 5 0 e >Xt %X6X6X6X6X5Xy * * <X6X7X7X7X7X6X%XUXUXUXUXUXUX",
"UXUXUXUXUXUXUXUXUXUXUXE ' &.&.*.*.>.>.:.o.[ 2 0 1 %X4X4X3X9 - f.oXz.= =X4X4X4X4X4X%XUXUXUXUXUXUX",
"UXUXUXUXUXUXUXUXUXUXUXUX/ @.$.&.&.*.-.>.;.:.~ < , %X=X-X+ p.T.@X#X@Xp.9 :X;X;X;X;X%XUXUXUXUXUXUX",
"UXUXUXUXUXUXUXUXUXUXUXUXT ' +.#.$.&.&.*.>.;.( ; UX8 7 * l.OX+X@X@X@XW.@ 8 $X$X$X$X$XUXUXUXUXUXUX",
"UXUXUXUXUXUXUXa a a a a p W ` +.@.$.&.&.' ! d u   o g.!..XXXOX+X+X@X@Xf.. UXUXUXUXUXUXUXUXUXUXUX",
"UXUXUXUXUXUXUXa u.i.i.i.y. .^ %.+.+.' / _ q.e.i Z c N T.^./.XXOXOX+X+X(.$ UXUXUXUXUXUXUXUXUXUXUX",
"UXUXUXUXUXUXUXa r.u.u.u.y.e.( ` ` ^ ( <.e.y.w.V ).).H n c.!.^..XXXOXOX+Xj.X UXUXUXUXUXUXUXUXUXUX",
"UXUXUXUXUXUXUXa t.r.r.r.r.w.) W Q ) 6.w.t.t.Y K  X X{.G.F B R.!./.XXOXOX/.& UXUXUXUXUXUXUXUXUXUX",
"UXUXUXUXUXUXUXa 8.9.9.9.9.8.6.) ,.6.8.9.8.0.A }.|.{.[.[.].K F b.T.^./.XXOXl.O UXUXUXUXUXUXUXUXUX",
"UXUXUXUXUXUXUXa 5.7.7.7.7.7.4.,.4.7.7.7.4.D Z.{.{.[.[.'.'.`.I.H n R.^./..X/.s.UXUXUXUXUXUXUXUXUX",
"UXUXUXUXUXUXUXa 2.2.2.2.2.2.2.2.2.2.2.2.M G [.[.[.'.'.`._.P.L.H b.T.~.^.^./.U.$ UXUXUXUXUXUXUXUX",
"UXUXUXUXUXUXUXa l k k k k k k k k k k g A G.[.'.'.`.`.P.P.K.Z.m x.W.Q.~.~.^./.g.UXUXUXUXUXUXUXUX",
"UXUXUXUXUXUXUXa h j j j j j j j j j f s H '.'.'.`._.P.K.K.D.G v.U.E.W.Q.Q.~.^.W.% UXUXUXUXUXUXUX",
"UXUXUXUXUXUXUXa a a a a a a a a a a p V H.'.`.`.P.P.K.J.D.U b h.m.Y.Y.E.Q.Q.Q.~.j.X UXUXUXUXUXUX",
"UXUXUXUXUXUXUXUXUXUXUXUXUXUXUXUXUXUXv K `.`.P.P.K.J.D.S.A.Z # & n.m.U.Y.Y.E.E.j.% UXUXUXUXUXUXUX",
"UXUXUXUXUXUXUXUXUXUXUXUXUXUXUXUXUXUXZ L._.P.K.K.J.D.F.A.J z UX$ j.n.m.m.U.k.& X UXUXUXUXUXUXUXUX",
"UXUXUXUXUXUXUXUXUXUXUXUXUXUXUXUXUXV U P.P.K.J.D.S.A.A.U Z UXUXUX& l.M.k.a.O UXUXUXUXUXUXUXUXUXUX",
"UXUXUXUXUXUXUXUXUXUXUXUXUXUXUXUXUXG L.K.J.D.S.F.A.V.V.G UXUXUXUXO d.s.$ UXUXUXUXUXUXUXUXUXUXUXUX",
"UXUXUXUXUXUXUXUXUXUXUXUXUXUXUXUXC Z.K.J.D.F.A.A.V.C.P C UXUXUXUXUX$ X UXUXUXUXUXUXUXUXUXUXUXUXUX",
"UXUXUXUXUXUXUXUXUXUXUXUXUXUXUXUXx G U F.A.A.V.C.B.B.S UXUXUXUXUXUXUXUXUXUXUXUXUXUXUXUXUXUXUXUXUX",
"UXUXUXUXUXUXUXUXUXUXUXUXUXUXUXUXUXUXC G U V.C.B.N.J x UXUXUXUXUXUXUXUXUXUXUXUXUXUXUXUXUXUXUXUXUX",
"UXUXUXUXUXUXUXUXUXUXUXUXUXUXUXUXUXUXUXUXZ J I N.P Z UXUXUXUXUXUXUXUXUXUXUXUXUXUXUXUXUXUXUXUXUXUX",
"UXUXUXUXUXUXUXUXUXUXUXUXUXUXUXUXUXUXUXUXUXz Z L J z UXUXUXUXUXUXUXUXUXUXUXUXUXUXUXUXUXUXUXUXUXUX",
"UXUXUXUXUXUXUXUXUXUXUXUXUXUXUXUXUXUXUXUXUXUXUXV C UXUXUXUXUXUXUXUXUXUXUXUXUXUXUXUXUXUXUXUXUXUXUX",
"UXUXUXUXUXUXUXUXUXUXUXUXUXUXUXUXUXUXUXUXUXUXUXUXUXUXUXUXUXUXUXUXUXUXUXUXUXUXUXUXUXUXUXUXUXUXUXUX",
"UXUXUXUXUXUXUXUXUXUXUXUXUXUXUXUXUXUXUXUXUXUXUXUXUXUXUXUXUXUXUXUXUXUXUXUXUXUXUXUXUXUXUXUXUXUXUXUX",
"UXUXUXUXUXUXUXUXUXUXUXUXUXUXUXUXUXUXUXUXUXUXUXUXUXUXUXUXUXUXUXUXUXUXUXUXUXUXUXUXUXUXUXUXUXUXUXUX"
};
