/* XPM */
static const char *file_xpm[] = 
{
"16 16 21 1",
" 	c None",
".	c #999999",
"+	c #818181",
"@	c #FFFFFF",
"#	c #ECECEC",
"$	c #EAEAEA",
"%	c #EBEBEB",
"&	c #EDEDED",
"*	c #F0F0F0",
"=	c #C4C4C4",
"-	c #C5C5C5",
";	c #C6C6C6",
">	c #C7C7C7",
",	c #EEEEEE",
"'	c #EDEDE5",
")	c #EDEDE6",
"!	c #EFEFEF",
"~	c #C8C8C8",
"{	c #F1F1F1",
"]	c #F2F2F2",
"^	c #959595",
".++++++++++++   ",
"+@@@@@@@@@@@@+  ",
"+@#$$%%%##&*@+  ",
"+@$=--;;;;>*@+  ",
"+@$%%###&&,*@+  ",
"+@%-;;;;;;>*@+  ",
"+@%%##&&'#,*@+  ",
"+@%;;;;,,),*@+  ",
"+@##&&,,!!!*@+  ",
"+@#;;;>>~~~*@+  ",
"+@#&,,!!*{{{@+  ",
"+@&;>>~~~{{]@+  ",
"+@&&,!!**{]]@+  ",
"+@@@@@@@@@@@@+  ",
"^++++++++++++^  ",
"                "
};

